{
.appVersion = "3135";
.formatVersion = 3;
axes = (
{
name = Weight;
tag = wght;
}
);
customParameters = (
{
disabled = 1;
name = vendorID;
value = "";
},
{
name = panose;
value = (
3,
0,
5,
2,
3,
0,
0,
0,
0,
0
);
},
{
name = unicodeRanges;
value = (
0,
1,
31,
33
);
},
{
name = codePageRanges;
value = (
"1252"
);
},
{
name = fsType;
value = (
);
},
{
disabled = 1;
name = blueScale;
value = 0.03333;
},
{
disabled = 1;
name = blueShift;
value = 1;
},
{
name = glyphOrder;
value = (
.notdef,
space,
exclam,
uni0022,
numbersign,
dollar,
percent,
ampersand,
quotesingle,
parenleft,
parenright,
asterisk,
plus,
comma,
hyphen,
period,
slash,
zero,
one,
two,
three,
four,
five,
six,
seven,
eight,
nine,
colon,
semicolon,
less,
equal,
greater,
question,
at,
A,
B,
C,
D,
E,
F,
G,
H,
I,
J,
K,
L,
M,
N,
O,
P,
Q,
R,
S,
T,
U,
V,
W,
X,
Y,
Z,
bracketleft,
bracketright,
asciicircum,
underscore,
grave,
a,
b,
c,
d,
e,
f,
g,
h,
i,
j,
k,
l,
m,
n,
o,
p,
q,
r,
s,
t,
u,
v,
w,
x,
y,
z,
braceleft,
bar,
braceright,
asciitilde,
quoteleft,
quoteright,
euro,
exclamdown,
cent,
sterling,
dieresis,
copyright,
registered,
degree,
acute,
ordmasculine,
questiondown,
Agrave,
Aacute,
Acircumflex,
Adieresis,
Ccedilla,
Egrave,
Eacute,
Ecircumflex,
Edieresis,
Igrave,
Iacute,
Icircumflex,
Idieresis,
Ntilde,
Ograve,
Oacute,
Ocircumflex,
Odieresis,
Ugrave,
Uacute,
Ucircumflex,
Udieresis,
agrave,
aacute,
acircumflex,
adieresis,
ccedilla,
egrave,
eacute,
ecircumflex,
edieresis,
igrave,
iacute,
icircumflex,
idieresis,
ntilde,
ograve,
oacute,
ocircumflex,
odieresis,
ugrave,
uacute,
ucircumflex,
udieresis
);
}
);
date = "2024-09-16 20:00:00 +0000";
familyName = Yuyu Short;
fontMaster = (
{
axesValues = (
0
);
customParameters = (
{
name = typoAscender;
value = 800;
},
{
name = typoDescender;
value = -200;
},
{
name = typoLineGap;
value = 90;
},
{
name = winAscent;
value = 798;
},
{
name = winDescent;
value = 252;
},
{
name = hheaAscender;
value = 798;
},
{
name = hheaDescender;
value = -252;
},
{

glyphs = (
{
glyphname = .notdef;
lastChange = "2026-04-04 11:04:39 +0000";
layers = (
{
layerId = m01;
shapes = (
{
closed = 1;
nodes = (
(501,0,l),
(501,692,l),
(106,692,l),
(106,0,l)
);
},
{
closed = 1;
nodes = (
(171,632,l),
(441,632,l),
(441,64,l),
(171,64,l)
);
}
);
width = 600;
}
);
},
{
glyphname = exclam;
lastChange = "2026-04-06 11:09:05 +0000";
layers = (
{
hints = (
{
horizontal = 1;
place = (19.38, 71.08);
place = (19.38, 71.08);
type = Stem;
},
{
place = (54.88, 47.28);
place = (54.88, 47.28);
type = Stem;
},
{
place = (49.71, 84.34);
place = (49.71, 84.34);
type = Stem;
}
);
layerId = m01;
shapes = (
{
closed = 1;
nodes = (
(128,131,o),
(169,135,o),
(168,193,cs),
(163,555,o),
(165,413,o),
(165,723,cs),
(165,758,o),
(122,760,o),
(118,721,cs),
(116,623,o),
(112,284,o),
(120,188,cs)
);
},
{
closed = 1;
nodes = (
(192,19,o),
(188,53,o),
(188,68,cs),
(188,92,o),
(169,104,o),
(130,104,cs),
(86,104,o),
(89,19,o),
(143,19,cs)
);
}
);
width = 298;
}
);
note = exclam;
unicode = 33;
},
{
glyphname = numbersign;
lastChange = "2026-04-06 11:16:15 +0000";
layers = (
{
hints = (
{
horizontal = 1;
place = (47.44, 53.56);
place = (47.44, 53.56);
type = Stem;
},
{
horizontal = 1;
place = (144, 51);
place = (144, 51);
type = Stem;
},
{
place = (442.91, 57.09);
place = (442.91, 57.09);
type = Stem;
},
{
horizontal = 1;
place = (149.67, 54.08);
place = (149.67, 54.08);
type = Stem;
},
{
place = (257.69, 53.31);
place = (257.69, 53.31);
type = Stem;
},
{
place = (422, 47);
place = (422, 47);
type = Stem;
},
{
place = (211.91, 63.09);
place = (211.91, 63.09);
type = Stem;
},
{
place = (404.68, 60.32);
place = (404.68, 60.32);
type = Stem;
}
);
layerId = m01;
shapes = (
{
closed = 1;
nodes = (
(255,-19,o),
(306,-8,o),
(315,31,cs),
(326,82,o),
(340,78,o),
(384,78,cs),
(430,78,o),
(426,133,o),
(350,134,c),
(350,185,o),
(355,173,o),
(403,173,c),
(436,193,o),
(442,202,o),
(411,224,cs),
(401,231,o),
(387,231,o),
(371,234,c),
(384,284,o),
(487,643,o),
(487,648,cs),
(487,683,o),
(444,679,o),
(435,645,cs),
(395,505,o),
(357,393,o),
(317,253,cs),
(315,245,o),
(315,233,o),
(244,233,cs),
(189,233,l),
(194,249,o),
(197,262,o),
(201,275,cs),
(237,396,o),
(319,635,o),
(319,648,cs),
(319,651,ls),
(319,694,o),
(280,685,o),
(272,659,cs),
(225,514,o),
(180,397,o),
(134,251,cs),
(130,241,o),
(118,231,o),
(108,226,cs),
(61,202,o),
(85,185,o),
(108,159,cs),
(139,123,o),
(69,148,o),
(60,100,c),
(59,91,o),
(89,74,o),
(85,65,cs),
(48,-22,o),
(128,-10,o),
(128,40,cs),
(128,52,o),
(136,76,o),
(148,76,cs),
(161,76,o),
(175,76,o),
(273,76,c),
(260,49,o),
(259,67,o),
(255,28,cs)
);
},
{
closed = 1;
nodes = (
(161,204,o),
(238,180,o),
(291,180,c),
(295,147,o),
(297,130,o),
(254,130,cs),
(161,130,l)
);
}
);
width = 548;
}
);
note = numbersign;
unicode = 35;
},
{
glyphname = dollar;
lastChange = "2026-04-06 10:57:51 +0000";
layers = (
{
hints = (
{
horizontal = 1;
place = (587, 53);
place = (587, 53);
type = Stem;
},
{
place = (158, 105.9);
place = (158, 105.9);
type = Stem;
},
{
place = (154.67, 60.33);
place = (154.67, 60.33);
type = Stem;
},
{
place = (169.08, 60.54);
place = (169.08, 60.54);
type = Stem;
},
{
place = (132.7, 100.3);
place = (132.7, 100.3);
type = Stem;
},
{
place = (179, 54.25);
place = (179, 54.25);
type = Stem;
}
);
layerId = m01;
shapes = (
{
closed = 1;
nodes = (
(90,46,o),
(151,11,o),
(183,10,c),
(184,-8,o),
(185,-26,o),
(187,-44,cs),
(188,-67,o),
(200,-81,o),
(213,-81,cs),
(227,-81,o),
(241,-64,o),
(241,-24,cs),
(240,-5,o),
(240,15,o),
(239,34,c),
(268,59,o),
(292,103,o),
(287,150,cs),
(280,212,o),
(246,309,o),
(232,379,c),
(232,587,l),
(240,601,o),
(271,597,o),
(274,597,cs),
(296,596,o),
(310,613,o),
(310,628,cs),
(310,641,o),
(301,653,o),
(279,655,cs),
(269,655,o),
(243,658,o),
(232,652,c),
(232,719,ls),
(232,731,o),
(232,737,o),
(230,741,cs),
(225,754,o),
(218,760,o),
(211,760,cs),
(197,760,o),
(182,737,o),
(182,708,cs),
(182,629,l),
(156,613,o),
(127,565,o),
(127,533,cs),
(127,479,o),
(172,414,o),
(180,379,c),
(180,112,o),
(180,94,o),
(181,76,c),
(164,85,o),
(139,95,o),
(119,95,cs),
(110,95,o),
(102,93,o),
(96,87,cs),
(92,83,o),
(90,78,o),
(90,74,cs)
);
},
{
closed = 1;
nodes = (
(182,464,o),
(154,526,o),
(187,552,c),
(183,486,ls)
);
},
{
closed = 1;
nodes = (
(245,165,ls),
(253,133,o),
(247,119,o),
(234,104,c),
(230,223,l)
);
}
);
width = 400;
}
);
note = dollar;
unicode = 36;
},
{
glyphname = percent;
lastChange = "2026-03-26 19:15:08 +0000";
layers = (
{
hints = (
{
horizontal = 1;
place = (-17.03, 106.06);
place = (-17.03, 106.06);
type = Stem;
},
{
horizontal = 1;
place = (113.71, 96.69);
place = (113.71, 96.69);
type = Stem;
},
{
place = (74, 59);
place = (74, 59);
type = Stem;
},
{
place = (223.97, 97.03);
place = (223.97, 97.03);
type = Stem;
},
{
place = (44, 56.82);
place = (44, 56.82);
type = Stem;
}
);
layerId = m01;
shapes = (
{
closed = 1;
nodes = (
(263,166,o),
(357,405,o),
(345,417,cs),
(307,455,o),
(289,440,o),
(271,391,cs),
(126,-4,ls),
(101,-71,o),
(153,-84,o),
(174,-36,cs)
);
},
{
closed = 1;
nodes = (
(139,148,o),
(155,181,o),
(155,209,c),
(156,248,o),
(151,262,o),
(110,265,cs),
(69,265,o),
(60,223,o),
(60,203,cs),
(60,173,o),
(77,161,o),
(105,156,cs)
);
},
{
closed = 1;
nodes = (
(325,23,ls),
(353,23,o),
(376,50,o),
(376,80,cs),
(375,107,o),
(355,129,o),
(327,129,cs),
(301,128,o),
(279,100,o),
(279,67,cs),
(279,65,ls),
(279,37,o),
(297,23,o),
(323,23,cs)
);
}
);
width = 436;
}
);
note = percent;
unicode = 37;
},
{
glyphname = ampersand;
lastChange = "2026-04-06 11:04:48 +0000";
layers = (
{
hints = (
{
horizontal = 1;
place = (-32.22, 58.17);
place = (-32.22, 58.17);
type = Stem;
},
{
place = (36.33, 57.03);
place = (36.33, 57.03);
type = Stem;
},
{
place = (121.76, 72.24);
place = (121.76, 72.24);
type = Stem;
},
{
place = (98, 101.16);
place = (98, 101.16);
type = Stem;
}
);
layerId = m01;
shapes = (
{
closed = 1;
nodes = (
(188,-2,o),
(242,44,o),
(242,97,cs),
(242,107,o),
(211,154,o),
(195,112,cs),
(175,59,o),
(107,31,o),
(107,82,cs),
(107,89,o),
(153,257,o),
(175,335,c),
(232,249,o),
(199,303,o),
(258,210,cs),
(305,136,o),
(343,71,o),
(383,8,cs),
(390,-4,o),
(450,-9,o),
(395,83,cs),
(334,185,o),
(273,295,o),
(215,402,cs),
(199,432,o),
(229,562,o),
(213,638,cs),
(197,714,o),
(123,715,o),
(97,637,c),
(79,549,o),
(136,437,o),
(136,419,cs),
(136,392,o),
(130,367,o),
(122,340,cs),
(97,262,o),
(50,118,o),
(50,82,cs),
(50,35,o),
(83,-2,o),
(129,-2,cs)
);
},
{
closed = 1;
nodes = (
(150,512,o),
(140,555,o),
(140,571,cs),
(140,580,o),
(139,595,o),
(141,601,cs),
(149,627,o),
(155,621,o),
(158,621,cs),
(169,621,o),
(177,577,o),
(178,561,cs),
(178,551,o),
(177,509,o),
(165,509,c)
);
}
);
width = 468;
}
);
note = ampersand;
unicode = 38;
},
{
glyphname = quotesingle;
lastChange = "2026-04-06 08:58:15 +0000";
layers = (
{
hints = (
{
horizontal = 1;
place = (502, 211.41);
place = (502, 211.41);
type = Stem;
},
{
place = (121, 85.26);
place = (121, 85.26);
type = Stem;
}
);
layerId = m01;
shapes = (
{
closed = 1;
nodes = (
(163,568,o),
(160,616,o),
(160,655,cs),
(160,687,o),
(139,717,o),
(118,710,cs),
(94,702,o),
(80,686,o),
(94,638,cs),
(104,605,o),
(108,542,o),
(110,539,c)
);
}
);
width = 221;
}
);
note = quotesingle;
unicode = 39;
},
{
glyphname = parenleft;
lastChange = "2026-04-06 11:09:42 +0000";
layers = (
{
hints = (
{
place = (0, 160);
place = (0, 160);
type = Stem;
}
);
layerId = m01;
shapes = (
{
closed = 1;
nodes = (
(247,-52,o),
(283,-24,o),
(245,11,cs),
(172,78,o),
(159,179,o),
(159,282,cs),
(159,373,o),
(182,606,o),
(249,667,cs),
(280,698,o),
(222,758,o),
(188,683,cs),
(117,525,o),
(100,430,o),
(100,262,c),
(112,116,o),
(110,82,o),
(214,-41,c)
);
}
);
width = 351;
}
);
note = parenleft;
unicode = 40;
},
{
glyphname = parenright;
lastChange = "2026-04-06 11:09:49 +0000";
layers = (
{
hints = (
{
place = (82, 140);
place = (82, 140);
type = Stem;
}
);
layerId = m01;
shapes = (
{
closed = 1;
nodes = (
(241,83,o),
(239,117,o),
(251,262,c),
(251,430,o),
(234,525,o),
(163,683,cs),
(129,758,o),
(71,698,o),
(102,667,cs),
(169,606,o),
(192,373,o),
(192,282,cs),
(192,179,o),
(179,79,o),
(106,12,cs),
(68,-23,o),
(104,-51,o),
(137,-40,c)
);
}
);
width = 351;
}
);
note = parenright;
unicode = 41;
},
{
glyphname = asterisk;
lastChange = "2026-04-06 08:35:09 +0000";
layers = (
{
hints = (
{
horizontal = 1;
place = (493.47, 137.53);
place = (493.47, 137.53);
type = Stem;
},
{
place = (36.22, 128.82);
place = (36.22, 128.82);
type = Stem;
}
);
layerId = m01;
shapes = (
{
closed = 1;
nodes = (
(90,473,o),
(94,521,o),
(134,517,c),
(162,499,o),
(185,518,o),
(185,534,cs),
(185,542,o),
(166,556,o),
(166,566,c),
(197,603,o),
(209,655,o),
(144,629,cs),
(115,616,o),
(131,615,o),
(120,619,cs),
(100,626,o),
(80,656,o),
(59,625,c),
(74,566,ls),
(78,552,o),
(28,535,o),
(61,502,cs)
);
}
);
width = 251;
}
);
note = asterisk;
unicode = 42;
},
{
glyphname = plus;
lastChange = "2026-03-26 15:46:26 +0000";
layers = (
{
hints = (
{
horizontal = 1;
place = (217, 48.51);
place = (217, 48.51);
type = Stem;
},
{
horizontal = 1;
place = (359, -20);
target = down;
type = TopGhost;
},
{
place = (172.47, 58.53);
place = (172.47, 58.53);
type = Stem;
},
{
horizontal = 1;
place = (208.8, 55.92);
place = (208.8, 55.92);
type = Stem;
},
{
place = (170, 49);
place = (170, 49);
type = Stem;
}
);
layerId = m01;
shapes = (
{
closed = 1;
nodes = (
(247,84,o),
(219,131,o),
(231,157,c),
(249,156,o),
(343,139,o),
(343,180,cs),
(343,225,o),
(258,187,o),
(232,213,cs),
(220,224,o),
(226,252,o),
(219,271,cs),
(206,307,o),
(181,311,o),
(170,266,cs),
(167,257,o),
(172,235,o),
(172,222,cs),
(172,195,o),
(123,208,o),
(96,204,cs),
(65,201,o),
(54,194,o),
(63,164,cs),
(70,140,o),
(147,151,o),
(168,152,c),
(176,136,o),
(168,84,o),
(192,84,cs)
);
}
);
width = 395;
}
);
note = plus;
unicode = 43;
},
{
glyphname = comma;
lastChange = "2026-04-06 11:17:25 +0000";
layers = (
{
hints = (
{
horizontal = 1;
place = (-45, 173);
place = (-45, 173);
type = Stem;
},
{
place = (131, 81.9);
place = (131, 81.9);
type = Stem;
}
);
layerId = m01;
shapes = (
{
closed = 1;
nodes = (
(199,-93,o),
(162,134,o),
(80,73,c),
(37,29,o),
(98,8,o),
(99,-2,cs),
(102,-16,o),
(70,-43,o),
(60,-77,c)
);
}
);
width = 253;
}
);
note = comma;
unicode = 44;
},
{
glyphname = hyphen;
lastChange = "2026-04-06 11:19:00 +0000";
layers = (
{
hints = (
{
horizontal = 1;
place = (150, 53);
place = (150, 53);
type = Stem;
},
{
place = (70, 267.88);
place = (70, 267.88);
type = Stem;
}
);
layerId = m01;
shapes = (
{
closed = 1;
nodes = (
(353,149,o),
(337,207,o),
(291,205,cs),
(192,200,l),
(154,198,o),
(132,201,o),
(94,198,cs),
(65,195,o),
(57,150,o),
(100,150,cs),
(168,146,o),
(236,150,o),
(305,149,cs)
);
}
);
width = 414;
}
);
note = hyphen;
unicode = 45;
},
{
glyphname = period;
lastChange = "2026-04-06 11:16:53 +0000";
layers = (
{
hints = (
{
horizontal = 1;
place = (24.84, 104.25);
place = (24.84, 104.25);
type = Stem;
},
{
place = (89, 110.59);
place = (89, 110.59);
type = Stem;
}
);
layerId = m01;
shapes = (
{
closed = 1;
nodes = (
(133,9,o),
(153,21,o),
(152,46,cs),
(149,62,o),
(156,98,o),
(106,98,cs),
(64,98,o),
(60,79,o),
(60,37,cs),
(61,21,o),
(75,9,o),
(93,9,cs)
);
}
);
width = 252;
}
);
note = period;
unicode = 46;
},
{
glyphname = slash;
lastChange = "2026-04-06 10:38:16 +0000";
layers = (
{
layerId = m01;
shapes = (
{
closed = 1;
nodes = (
(83,-19,o),
(109,-1,o),
(126,50,cs),
(182,236,o),
(306,648,o),
(311,671,c),
(301,715,o),
(268,693,o),
(261,673,cs),
(201,478,o),
(66,47,o),
(70,31,cs)
);
}
);
width = 381;
}
);
note = slash;
unicode = 47;
},
{
glyphname = zero;
lastChange = "2026-04-06 09:07:16 +0000";
layers = (
{
hints = (
{
place = (39, 56);
place = (39, 56);
type = Stem;
},
{
place = (200, 57.6);
place = (200, 57.6);
type = Stem;
}
);
layerId = m01;
shapes = (
{
closed = 1;
nodes = (
(254,5,o),
(324,52,o),
(331,99,cs),
(353,199,o),
(363,292,o),
(363,386,cs),
(363,471,o),
(356,698,o),
(237,698,cs),
(180,698,o),
(127,631,o),
(112,596,cs),
(76,515,o),
(69,432,o),
(69,349,cs),
(69,270,o),
(90,5,o),
(203,5,cs)
);
},
{
closed = 1;
nodes = (
(141,144,o),
(124,314,o),
(124,375,cs),
(124,437,o),
(138,601,o),
(241,633,c),
(312,603,o),
(305,438,o),
(305,340,cs),
(305,205,o),
(281,24,o),
(189,84,c)
);
}
);
width = 433;
}
);
note = zero;
unicode = 48;
},
{
glyphname = one;
lastChange = "2026-04-06 10:28:45 +0000";
layers = (
{
hints = (
{
place = (123, 57.12);
place = (123, 57.12);
type = Stem;
}
);
layerId = m01;
shapes = (
{
closed = 1;
nodes = (
(156,44,o),
(151,466,o),
(150,651,cs),
(150,686,o),
(127,699,o),
(112,688,c),
(111,688,o),
(111,687,o),
(110,687,c),
(62,661,o),
(75,670,o),
(62,661,cs),
(24,633,o),
(59,605,o),
(75,612,c),
(85,614,o),
(92,617,o),
(99,620,c),
(99,489,o),
(102,481,o),
(97,332,c),
(97,98,o),
(97,76,o),
(99,54,cs),
(103,-21,o),
(156,2,o),
(156,37,cs)
);
}
);
width = 246;
}
);
note = one;
unicode = 49;
},
{
glyphname = two;
lastChange = "2026-04-06 10:28:53 +0000";
layers = (
{
hints = (
{
horizontal = 1;
place = (-11.23, 76.01);
place = (-11.23, 76.01);
type = Stem;
},
{
place = (188, 52.04);
place = (188, 52.04);
type = Stem;
}
);
layerId = m01;
shapes = (
{
closed = 1;
nodes = (
(164,-11,o),
(217,1,o),
(270,8,cs),
(327,14,o),
(324,64,o),
(263,64,cs),
(217,59,o),
(172,55,o),
(122,50,c),
(152,164,o),
(349,643,o),
(241,671,cs),
(162,692,o),
(126,650,o),
(102,602,cs),
(93,584,o),
(130,558,o),
(147,575,cs),
(180,608,o),
(163,628,o),
(210,628,c),
(259,601,o),
(92,147,o),
(63,54,cs),
(54,18,o),
(61,-11,o),
(104,-11,cs)
);
}
);
width = 361;
}
);
note = two;
unicode = 50;
},
{
glyphname = three;
lastChange = "2026-04-06 10:29:00 +0000";
layers = (
{
hints = (
{
horizontal = 1;
place = (-3, 53);
place = (-3, 53);
type = Stem;
},
{
horizontal = 1;
place = (617.63, 66.79);
place = (617.63, 66.79);
type = Stem;
},
{
place = (197.48, 54.52);
place = (197.48, 54.52);
type = Stem;
}
);
layerId = m01;
shapes = (
{
closed = 1;
nodes = (
(156,-21,o),
(253,18,o),
(253,110,cs),
(253,166,o),
(214,210,o),
(153,224,cs),
(145,226,o),
(137,227,o),
(127,230,c),
(181,397,o),
(177,415,o),
(215,571,cs),
(224,611,o),
(244,684,o),
(186,684,cs),
(150,684,o),
(122,678,o),
(95,670,cs),
(50,656,o),
(58,613,o),
(106,620,cs),
(127,623,o),
(148,628,o),
(175,632,c),
(166,594,o),
(159,563,o),
(150,532,cs),
(120,434,o),
(63,217,o),
(63,209,cs),
(63,146,o),
(107,179,o),
(145,167,c),
(181,151,o),
(198,153,o),
(198,103,cs),
(198,56,o),
(134,58,o),
(86,50,cs),
(25,36,o),
(56,2,o),
(73,-3,cs)
);
}
);
width = 303;
}
);
note = three;
unicode = 51;
},
{
glyphname = four;
lastChange = "2026-04-06 10:32:39 +0000";
layers = (
{
hints = (
{
horizontal = 1;
place = (108.56, 55.44);
place = (108.56, 55.44);
type = Stem;
},
{
horizontal = 1;
place = (687, -20);
target = down;
type = TopGhost;
},
{
place = (37.33, 57.67);
place = (37.33, 57.67);
type = Stem;
},
{
place = (210, 54.09);
place = (210, 54.09);
type = Stem;
}
);
layerId = m01;
shapes = (
{
closed = 1;
nodes = (
(282,231,o),
(282,413,o),
(281,609,cs),
(281,671,o),
(229,682,o),
(229,608,cs),
(229,485,o),
(229,320,o),
(228,198,c),
(228,162,o),
(147,159,o),
(120,174,c),
(96,207,o),
(151,553,o),
(151,642,cs),
(151,685,o),
(108,694,o),
(102,644,cs),
(95,524,o),
(55,183,o),
(55,180,cs),
(55,139,o),
(78,119,o),
(124,119,cs),
(157,119,l),
(228,119,l),
(228,30,ls),
(228,-28,o),
(282,-21,o),
(282,25,cs)
);
}
);
width = 342;
}
);
note = four;
unicode = 52;
},
{
glyphname = five;
lastChange = "2026-03-26 19:17:47 +0000";
layers = (
{
hints = (
{
horizontal = 1;
place = (-10, 52);
place = (-10, 52);
type = Stem;
},
{
horizontal = 1;
place = (640, 48.5);
place = (640, 48.5);
type = Stem;
},
{
place = (41.95, 52.98);
place = (41.95, 52.98);
type = Stem;
},
{
place = (203.03, 56.55);
place = (203.03, 56.55);
type = Stem;
},
{
place = (54, 47);
place = (54, 47);
type = Stem;
}
);
layerId = m01;
shapes = (
{
closed = 1;
nodes = (
(211,-13,o),
(301,18,o),
(272,138,cs),
(250,229,o),
(124,164,o),
(124,227,cs),
(124,343,o),
(128,460,o),
(130,577,cs),
(132,635,o),
(133,651,o),
(191,640,cs),
(223,634,o),
(232,686,o),
(200,686,cs),
(145,686,o),
(86,693,o),
(83,624,cs),
(78,482,o),
(71,340,o),
(71,199,cs),
(71,156,o),
(86,142,o),
(127,141,cs),
(192,140,o),
(221,127,o),
(221,87,cs),
(221,86,ls),
(221,49,o),
(155,43,o),
(118,43,cs),
(33,43,o),
(79,-16,o),
(116,-13,c)
);
}
);
width = 328;
}
);
note = five;
unicode = 53;
},
{
glyphname = six;
lastChange = "2026-04-06 11:17:00 +0000";
layers = (
{
hints = (
{
horizontal = 1;
place = (-4.14, 58.65);
place = (-4.14, 58.65);
type = Stem;
},
{
horizontal = 1;
place = (156.49, 57.68);
place = (156.49, 57.68);
type = Stem;
},
{
horizontal = 1;
place = (622.77, 55.89);
place = (622.77, 55.89);
type = Stem;
},
{
place = (22.4, 55.41);
place = (22.4, 55.41);
type = Stem;
},
{
place = (222, 56.38);
place = (222, 56.38);
type = Stem;
}
);
layerId = m01;
shapes = (
{
closed = 1;
nodes = (
(257,-4,o),
(292,59,o),
(296,117,cs),
(296,166,o),
(270,199,o),
(235,210,cs),
(196,225,o),
(161,194,o),
(126,159,c),
(123,164,o),
(96,303,o),
(96,369,cs),
(96,425,o),
(117,639,o),
(177,623,cs),
(250,604,o),
(236,679,o),
(180,679,cs),
(75,679,o),
(40,465,o),
(40,358,cs),
(40,238,o),
(79,-4,o),
(199,-4,cs)
);
},
{
closed = 1;
nodes = (
(183,60,o),
(159,77,o),
(159,93,cs),
(159,116,o),
(193,157,o),
(208,157,c),
(212,157,o),
(239,133,o),
(240,128,cs),
(247,86,o),
(221,55,o),
(199,55,c)
);
}
);
width = 336;
}
);
note = six;
unicode = 54;
},
{
glyphname = seven;
lastChange = "2026-04-06 10:30:27 +0000";
layers = (
{
hints = (
{
horizontal = 1;
place = (86.49, 49.51);
place = (86.49, 49.51);
type = Stem;
},
{
horizontal = 1;
place = (634, 52.74);
place = (634, 52.74);
type = Stem;
},
{
place = (37, 227.19);
place = (37, 227.19);
type = Stem;
}
);
layerId = m01;
shapes = (
{
closed = 1;
nodes = (
(100,-5,o),
(152,-25,o),
(161,41,cs),
(173,130,o),
(274,609,o),
(274,641,cs),
(274,663,o),
(265,682,o),
(240,684,cs),
(204,687,o),
(106,685,o),
(70,684,cs),
(47,684,o),
(42,636,o),
(73,635,cs),
(128,634,o),
(105,634,o),
(220,634,c),
(218,622,o),
(217,613,o),
(215,604,cs),
(188,466,o),
(156,338,o),
(134,198,cs),
(130,173,o),
(117,167,o),
(74,167,cs),
(50,167,o),
(36,134,o),
(73,120,cs),
(85,114,o),
(103,119,o),
(116,119,c),
(104,40,o),
(100,27,o),
(100,16,cs)
);
}
);
width = 324;
}
);
note = seven;
unicode = 55;
},
{
glyphname = eight;
lastChange = "2026-04-06 10:30:19 +0000";
layers = (
{
hints = (
{
horizontal = 1;
place = (-17.22, 21);
target = up;
type = BottomGhost;
},
{
place = (41.23, 53.53);
place = (41.23, 53.53);
type = Stem;
},
{
place = (202.54, 57.6);
place = (202.54, 57.6);
type = Stem;
}
);
layerId = m01;
shapes = (
{
closed = 1;
nodes = (
(283,99,o),
(268,131,o),
(237,160,c),
(300,284,o),
(305,542,o),
(238,647,cs),
(192,722,o),
(108,713,o),
(87,623,cs),
(61,517,o),
(42,298,o),
(90,198,cs),
(116,142,o),
(64,131,o),
(64,77,cs),
(64,-37,o),
(283,-54,o),
(283,70,cs)
);
},
{
closed = 1;
nodes = (
(92,66,o),
(131,128,o),
(151,128,cs),
(179,128,o),
(226,104,o),
(226,72,c),
(214,25,o),
(186,31,o),
(144,46,cs)
);
},
{
closed = 1;
nodes = (
(97,406,o),
(110,432,o),
(135,601,cs),
(142,653,o),
(185,638,o),
(194,609,cs),
(248,458,o),
(223,377,o),
(206,234,cs),
(200,185,o),
(154,169,o),
(136,232,cs)
);
}
);
width = 346;
}
);
note = eight;
unicode = 56;
},
{
glyphname = nine;
lastChange = "2026-04-06 10:30:02 +0000";
layers = (
{
hints = (
{
horizontal = 1;
place = (686.56, -20);
target = down;
type = TopGhost;
},
{
place = (47.63, 54.55);
place = (47.63, 54.55);
type = Stem;
},
{
place = (199, 54);
place = (199, 54);
type = Stem;
}
);
layerId = m01;
shapes = (
{
closed = 1;
nodes = (
(221,-21,o),
(275,-13,o),
(275,39,cs),
(275,310,o),
(275,457,o),
(274,604,cs),
(274,671,o),
(183,728,o),
(125,643,cs),
(72,558,o),
(65,426,o),
(73,338,cs),
(81,243,o),
(128,181,o),
(221,197,c),
(221,39,ls)
);
},
{
closed = 1;
nodes = (
(107,373,o),
(118,500,o),
(162,601,cs),
(178,635,o),
(211,645,o),
(215,592,cs),
(220,544,o),
(225,497,o),
(225,435,cs),
(225,395,o),
(217,341,o),
(209,288,cs),
(200,247,o),
(167,242,o),
(151,281,cs)
);
}
);
width = 335;
}
);
note = nine;
unicode = 57;
},
{
glyphname = colon;
lastChange = "2026-04-06 10:26:26 +0000";
layers = (
{
hints = (
{
horizontal = 1;
place = (81, 79);
place = (81, 79);
type = Stem;
},
{
horizontal = 1;
place = (269.33, 75.12);
place = (269.33, 75.12);
type = Stem;
},
{
place = (77.83, 72.43);
place = (77.83, 72.43);
type = Stem;
}
);
layerId = m01;
shapes = (
{
closed = 1;
nodes = (
(122,179,o),
(164,189,o),
(164,229,cs),
(164,267,o),
(139,279,o),
(96,279,c),
(80,274,o),
(53,213,o),
(86,191,c)
);
},
{
closed = 1;
nodes = (
(148,9,o),
(168,21,o),
(167,46,cs),
(164,62,o),
(171,98,o),
(121,98,cs),
(79,98,o),
(75,79,o),
(75,37,cs),
(76,21,o),
(90,9,o),
(108,9,cs)
);
}
);
width = 287;
}
);
note = colon;
unicode = 58;
},
{
glyphname = semicolon;
lastChange = "2026-04-06 11:17:42 +0000";
layers = (
{
hints = (
{
horizontal = 1;
place = (248.98, 88.7);
place = (248.98, 88.7);
type = Stem;
},
{
place = (100, 54.41);
place = (100, 54.41);
type = Stem;
},
{
place = (57.61, 89.39);
place = (57.61, 89.39);
type = Stem;
}
);
layerId = m01;
shapes = (
{
closed = 1;
nodes = (
(209,-59,o),
(186,136,o),
(88,71,c),
(66,14,o),
(108,14,o),
(109,4,cs),
(112,-10,o),
(66,-58,o),
(70,-76,c)
);
},
{
closed = 1;
nodes = (
(130,179,o),
(172,189,o),
(172,229,cs),
(172,267,o),
(147,279,o),
(104,279,c),
(88,274,o),
(61,213,o),
(94,191,c)
);
}
);
width = 292;
}
);
note = semicolon;
unicode = 59;
},
{
glyphname = less;
lastChange = "2026-04-06 11:18:37 +0000";
layers = (
{
hints = (
{
horizontal = 1;
place = (103, 222);
place = (103, 222);
type = Stem;
},
{
place = (45.56, 209.34);
place = (45.56, 209.34);
type = Stem;
}
);
layerId = m01;
shapes = (
{
closed = 1;
nodes = (
(270,77,o),
(284,130,o),
(246,153,cs),
(214,174,o),
(180,194,o),
(147,215,c),
(141,251,o),
(199,272,o),
(226,314,cs),
(245,343,o),
(226,357,o),
(196,353,c),
(161,323,o),
(129,291,o),
(98,258,c),
(75,225,o),
(72,199,o),
(99,179,cs),
(145,149,o),
(189,118,o),
(238,93,cs)
);
}
);
width = 339;
}
);
note = less;
unicode = 60;
},
{
glyphname = equal;
lastChange = "2026-03-25 13:42:26 +0000";
layers = (
{
hints = (
{
horizontal = 1;
place = (147, 49);
place = (147, 49);
type = Stem;
},
{
horizontal = 1;
place = (241, 58.08);
place = (241, 58.08);
type = Stem;
},
{
place = (24, 250);
place = (24, 250);
type = Stem;
},
{
horizontal = 1;
place = (249, 48);
place = (249, 48);
type = Stem;
},
{
horizontal = 1;
place = (241, 50);
place = (241, 50);
type = Stem;
}
);
layerId = m01;
shapes = (
{
closed = 1;
nodes = (
(276,241,o),
(281,288,o),
(241,291,cs),
(201,297,o),
(160,297,o),
(119,300,c),
(104,298,o),
(74,301,o),
(59,297,cs),
(31,291,o),
(34,249,o),
(58,249,cs),
(119,244,o),
(179,241,o),
(240,241,cs)
);
},
{
closed = 1;
nodes = (
(297,150,o),
(290,199,o),
(238,199,cs),
(177,198,o),
(116,199,o),
(56,196,cs),
(21,196,o),
(20,153,o),
(55,150,cs),
(118,148,o),
(68,149,o),
(148,149,c),
(237,147,ls)
);
}
);
width = 359;
}
);
note = equal;
unicode = 61;
},
{
glyphname = greater;
lastChange = "2026-04-06 11:18:22 +0000";
layers = (
{
hints = (
{
horizontal = 1;
origin = (0,17);
place = (146, 227.67);
type = Stem;
},
{
place = (1, 208.22);
place = (1, 208.22);
type = Stem;
}
);
layerId = m01;
shapes = (
{
closed = 1;
nodes = (
(172,148,o),
(164,149,o),
(223,193,cs),
(262,226,o),
(265,258,o),
(225,291,cs),
(199,311,o),
(170,330,o),
(143,350,cs),
(108,378,o),
(56,347,o),
(114,305,cs),
(139,289,o),
(165,273,o),
(197,253,c),
(165,219,o),
(103,173,o),
(79,146,cs),
(57,120,o),
(78,96,o),
(110,106,c)
);
}
);
width = 334;
}
);
note = greater;
unicode = 62;
},
{
glyphname = question;
lastChange = "2026-04-06 11:08:00 +0000";
layers = (
{
hints = (
{
horizontal = 1;
place = (16.23, 81.79);
place = (16.23, 81.79);
type = Stem;
},
{
horizontal = 1;
place = (668.71, 42.55);
place = (668.71, 42.55);
type = Stem;
},
{
place = (95.1, 49.7);
place = (95.1, 49.7);
type = Stem;
},
{
place = (285.91, 51.09);
place = (285.91, 51.09);
type = Stem;
},
{
place = (107.5, 61.55);
place = (107.5, 61.55);
type = Stem;
}
);
layerId = m01;
shapes = (
{
closed = 1;
nodes = (
(200,143,o),
(165,201,o),
(171,222,c),
(241,305,o),
(357,381,o),
(357,553,cs),
(357,649,o),
(306,762,o),
(199,762,cs),
(137,762,o),
(96,728,o),
(73,680,cs),
(60,647,o),
(89,617,o),
(110,655,cs),
(138,706,o),
(156,709,o),
(206,709,cs),
(282,701,o),
(306,612,o),
(306,549,cs),
(306,464,o),
(246,381,o),
(177,314,cs),
(128,266,o),
(101,225,o),
(127,170,cs),
(131,161,o),
(141,143,o),
(165,143,cs)
);
},
{
closed = 1;
nodes = (
(197,9,o),
(217,21,o),
(216,46,cs),
(213,62,o),
(220,98,o),
(170,98,cs),
(128,98,o),
(124,79,o),
(124,37,cs),
(125,21,o),
(139,9,o),
(157,9,cs)
);
}
);
width = 437;
}
);
note = question;
unicode = 63;
},
{
glyphname = at;
lastChange = "2026-04-08 17:57:53 +0000";
layers = (
{
hints = (
{
horizontal = 1;
place = (-129.85, 48.6);
place = (-129.85, 48.6);
type = Stem;
},
{
horizontal = 1;
place = (18.95, 49.02);
place = (18.95, 49.02);
type = Stem;
},
{
horizontal = 1;
place = (192.39, 45.95);
place = (192.39, 45.95);
type = Stem;
},
{
horizontal = 1;
place = (454.05, 46.24);
place = (454.05, 46.24);
type = Stem;
},
{
place = (99.08, 46.07);
place = (99.08, 46.07);
type = Stem;
},
{
place = (219.79, 46.75);
place = (219.79, 46.75);
type = Stem;
},
{
place = (506.23, 44.96);
place = (506.23, 44.96);
type = Stem;
}
);
layerId = m01;
shapes = (
{
closed = 1;
nodes = (
(309,-39,o),
(367,-39,o),
(411,-24,cs),
(428,-24,o),
(424,23,o),
(394,15,cs),
(357,3,o),
(302,6,o),
(287,6,cs),
(217,6,o),
(75,29,o),
(75,143,cs),
(75,236,o),
(204,369,o),
(296,369,cs),
(382,369,o),
(564,294,o),
(564,163,cs),
(564,130,o),
(538,108,o),
(509,94,cs),
(483,82,o),
(454,88,o),
(440,102,c),
(440,109,o),
(437,197,o),
(434,202,cs),
(421,217,o),
(411,215,o),
(402,196,cs),
(399,192,o),
(402,185,o),
(402,176,c),
(365,200,o),
(337,211,o),
(295,211,cs),
(253,211,o),
(185,196,o),
(185,146,cs),
(185,88,o),
(253,72,o),
(314,72,cs),
(364,72,o),
(349,83,o),
(399,85,cs),
(416,55,o),
(469,34,o),
(516,58,cs),
(564,79,o),
(607,116,o),
(607,164,cs),
(607,301,o),
(455,412,o),
(295,412,cs),
(197,412,o),
(32,281,o),
(32,145,cs),
(32,-2,o),
(189,-39,o),
(284,-39,cs)
);
},
{
closed = 1;
nodes = (
(280,108,o),
(233,109,o),
(220,147,c),
(252,174,o),
(291,178,o),
(330,168,cs),
(362,160,o),
(374,151,o),
(380,129,c),
(359,112,o),
(335,108,o),
(312,108,cs)
);
}
);
width = 640;
}
);
note = at;
unicode = 64;
},
{
glyphname = A;
lastChange = "2026-04-08 18:03:57 +0000";
layers = (
{
anchors = (
{
name = bottom;
pos = (180,0);
},
{
name = ogonek;
pos = (296,14);
},
{
name = top;
pos = (223,725);
}
);
hints = (
{
horizontal = 1;
place = (131, 42);
place = (131, 42);
type = Stem;
},
{
place = (83, 48);
place = (83, 48);
type = Stem;
},
{
place = (299, 49);
place = (299, 49);
type = Stem;
}
);
layerId = m01;
shapes = (
{
closed = 1;
nodes = (
(103,0,o),
(106,38,o),
(106,56,cs),
(107,144,o),
(108,146,o),
(182,146,cs),
(272,145,o),
(271,145,o),
(276,40,cs),
(277,23,o),
(279,6,o),
(292,0,cs),
(317,-11,o),
(322,23,o),
(322,33,cs),
(322,298,o),
(342,426,o),
(292,648,cs),
(285,680,o),
(257,714,o),
(234,714,cs),
(216,714,o),
(196,704,o),
(178,685,cs),
(76,578,o),
(37,177,o),
(65,29,cs),
(67,18,o),
(72,0,o),
(85,0,cs)
);
},
{
closed = 1;
nodes = (
(110,189,o),
(108,234,o),
(111,263,cs),
(126,398,o),
(160,649,o),
(229,649,cs),
(249,649,o),
(262,592,o),
(263,575,cs),
(272,447,o),
(279,347,o),
(279,219,cs),
(279,199,o),
(263,191,o),
(253,190,cs),
(234,189,o),
(156,189,o),
(131,189,cs)
);
}
);
width = 379;
}
);
note = A;
unicode = 65;
},
{
glyphname = B;
lastChange = "2026-04-05 12:37:57 +0000";
layers = (
{
anchors = (
{
name = bottom;
pos = (200,0);
},
{
name = center;
pos = (200,358);
},
{
name = top;
pos = (200,715);
}
);
hints = (
{
horizontal = 1;
place = (-12, 54);
place = (-12, 54);
type = Stem;
},
{
place = (58, 44);
place = (58, 44);
type = Stem;
},
{
place = (235, 48);
place = (235, 48);
type = Stem;
},
{
place = (294, 50);
place = (294, 50);
type = Stem;
},
{
place = (74, 45);
place = (74, 45);
type = Stem;
}
);
layerId = m01;
shapes = (
{
closed = 1;
nodes = (
(250,8,o),
(343,82,o),
(343,137,cs),
(343,198,o),
(275,245,o),
(210,255,c),
(254,324,o),
(284,434,o),
(284,510,cs),
(284,524,o),
(283,539,o),
(281,554,cs),
(263,667,o),
(171,718,o),
(73,718,cs),
(52,718,o),
(58,680,o),
(58,663,cs),
(58,534,o),
(71,149,o),
(86,27,cs),
(90,-2,o),
(107,0,o),
(134,0,c)
);
},
{
closed = 1;
nodes = (
(129,74,o),
(126,85,o),
(126,111,cs),
(126,150,o),
(119,148,o),
(152,170,cs),
(173,184,o),
(201,196,o),
(231,196,cs),
(285,196,o),
(302,134,o),
(279,111,cs),
(238,70,o),
(183,38,o),
(135,50,c)
);
},
{
closed = 1;
nodes = (
(113,352,o),
(107,525,o),
(102,651,c),
(164,651,o),
(220,620,o),
(232,557,cs),
(234,540,o),
(236,524,o),
(236,509,cs),
(236,416,o),
(185,299,o),
(119,226,c)
);
}
);
width = 400;
}
);
note = B;
unicode = 66;
},
{
glyphname = C;
lastChange = "2026-03-25 13:42:53 +0000";
layers = (
{
anchors = (
{
name = bottom;
pos = (150,0);
},
{
name = top;
pos = (187,723);
}
);
hints = (
{
horizontal = 1;
place = (0, 56);
place = (0, 56);
type = Stem;
},
{
place = (33, 59);
place = (33, 59);
type = Stem;
}
);
layerId = m01;
shapes = (
{
closed = 1;
nodes = (
(239,5,o),
(302,67,o),
(268,89,cs),
(248,102,o),
(229,53,o),
(182,61,cs),
(159,65,o),
(146,77,o),
(124,106,cs),
(98,140,o),
(60,293,o),
(101,470,cs),
(120,550,o),
(132,622,o),
(196,664,cs),
(230,686,o),
(207,715,o),
(195,715,cs),
(193,715,ls),
(136,715,o),
(93,628,o),
(74,574,cs),
(30,451,o),
(28,330,o),
(38,209,cs),
(44,136,o),
(65,70,o),
(132,25,cs),
(152,12,o),
(173,5,o),
(192,5,cs)
);
}
);
width = 300;
}
);
note = C;
unicode = 67;
},
{
glyphname = D;
lastChange = "2026-04-06 09:03:32 +0000";
layers = (
{
anchors = (
{
name = bottom;
pos = (163,0);
},
{
name = center;
pos = (163,358);
},
{
name = top;
pos = (153,715);
}
);
hints = (
{
place = (99, 54.32);
place = (99, 54.32);
type = Stem;
},
{
place = (254.12, 47.79);
place = (254.12, 47.79);
type = Stem;
},
{
place = (107.44, 45.88);
place = (107.44, 45.88);
type = Stem;
}
);
layerId = m01;
shapes = (
{
closed = 1;
nodes = (
(154,17,o),
(181,47,o),
(203,81,cs),
(263,175,o),
(293,276,o),
(283,381,cs),
(279,423,o),
(275,465,o),
(267,508,cs),
(254,587,o),
(223,660,o),
(138,707,cs),
(121,717,o),
(70,731,o),
(70,702,cs),
(70,668,o),
(69,664,o),
(70,593,cs),
(80,71,o),
(67,-7,o),
(96,1,cs)
);
},
{
closed = 1;
nodes = (
(124,660,l),
(184,612,o),
(215,552,o),
(224,487,cs),
(229,453,o),
(232,419,o),
(235,386,cs),
(245,277,o),
(214,173,o),
(126,75,c)
);
}
);
width = 333;
}
);
note = D;
unicode = 68;
},
{
glyphname = E;
lastChange = "2026-04-06 11:06:13 +0000";
layers = (
{
anchors = (
{
name = bottom;
pos = (154,0);
},
{
name = ogonek;
pos = (233,31);
},
{
name = top;
pos = (160,725);
},
{
name = topleft;
pos = (30,715);
}
);
hints = (
{
horizontal = 1;
place = (7.04, 44.55);
place = (7.04, 44.55);
type = Stem;
},
{
horizontal = 1;
place = (160.55, 39.04);
place = (160.55, 39.04);
type = Stem;
},
{
horizontal = 1;
place = (654.39, 46.58);
place = (654.39, 46.58);
type = Stem;
},
{
place = (49.5, 44.52);
place = (49.5, 44.52);
type = Stem;
}
);
layerId = m01;
shapes = (
{
closed = 1;
nodes = (
(264,-3,o),
(270,31,o),
(227,42,cs),
(205,46,o),
(183,47,o),
(161,47,cs),
(123,47,o),
(103,66,o),
(103,105,cs),
(103,125,o),
(96,151,o),
(132,151,cs),
(231,151,l),
(278,190,o),
(245,199,o),
(212,197,cs),
(191,196,o),
(170,199,o),
(149,200,cs),
(118,201,o),
(104,216,o),
(104,248,cs),
(104,355,o),
(105,481,o),
(105,588,cs),
(105,681,o),
(128,666,o),
(203,666,cs),
(225,666,o),
(239,668,o),
(252,684,c),
(264,721,o),
(178,710,o),
(139,712,c),
(100,712,o),
(65,705,o),
(63,645,cs),
(62,582,o),
(62,123,o),
(62,60,cs),
(63,25,o),
(84,5,o),
(118,0,cs),
(152,-5,o),
(186,-3,o),
(220,-3,cs)
);
}
);
width = 310;
}
);
note = E;
unicode = 69;
},
{
glyphname = F;
lastChange = "2026-03-26 16:16:39 +0000";
layers = (
{
anchors = (
{
name = bottom;
pos = (161,0);
},
{
name = top;
pos = (161,715);
}
);
hints = (
{
horizontal = 1;
place = (132.37, 40.63);
place = (132.37, 40.63);
type = Stem;
},
{
horizontal = 1;
place = (677.03, 39.6);
place = (677.03, 39.6);
type = Stem;
},
{
place = (45, 39.56);
place = (45, 39.56);
type = Stem;
},
{
place = (58, 45);
place = (58, 45);
type = Stem;
}
);
layerId = m01;
shapes = (
{
closed = 1;
nodes = (
(112,2,o),
(114,21,o),
(114,83,cs),
(114,140,o),
(127,143,o),
(164,142,cs),
(207,140,o),
(217,140,o),
(242,152,c),
(248,168,ls),
(257,192,o),
(182,196,o),
(156,193,cs),
(127,193,o),
(116,207,o),
(115,235,cs),
(110,350,o),
(96,603,o),
(96,618,cs),
(96,666,o),
(106,677,o),
(152,677,cs),
(171,677,o),
(257,666,o),
(267,684,cs),
(287,722,o),
(227,717,o),
(185,717,cs),
(106,717,o),
(152,718,o),
(73,719,cs),
(49,719,o),
(56,685,o),
(56,668,cs),
(60,470,o),
(64,271,o),
(69,72,cs),
(69,59,o),
(66,2,o),
(80,2,cs)
);
}
);
width = 311;
}
);
note = F;
unicode = 70;
},
{
glyphname = G;
lastChange = "2026-03-25 13:43:02 +0000";
layers = (
{
anchors = (
{
name = bottom;
pos = (175,0);
},
{
name = top;
pos = (175,715);
}
);
hints = (
{
horizontal = 1;
place = (666.15, 47.85);
place = (666.15, 47.85);
type = Stem;
},
{
place = (62, 55);
place = (62, 55);
type = Stem;
},
{
place = (233, 43);
place = (233, 43);
type = Stem;
},
{
place = (201, 61);
place = (201, 61);
type = Stem;
},
{
place = (214, 48);
place = (214, 48);
type = Stem;
}
);
layerId = m01;
shapes = (
{
closed = 1;
nodes = (
(240,13,o),
(242,65,o),
(252,142,cs),
(255,164,l),
(274,178,o),
(303,186,o),
(280,214,c),
(250,216,o),
(249,216,o),
(220,216,cs),
(187,216,o),
(204,147,o),
(204,110,cs),
(204,79,o),
(191,75,o),
(160,75,cs),
(128,75,o),
(87,288,o),
(103,460,cs),
(107,505,o),
(144,666,o),
(175,666,cs),
(177,666,l),
(204,655,o),
(223,623,o),
(223,583,cs),
(223,570,o),
(218,538,o),
(239,538,cs),
(276,538,o),
(268,619,o),
(251,655,cs),
(241,679,o),
(217,704,o),
(192,711,cs),
(184,713,o),
(177,714,o),
(170,714,cs),
(103,715,o),
(52,552,o),
(52,394,cs),
(52,306,o),
(60,13,o),
(171,13,cs)
);
}
);
width = 340;
}
);
note = G;
unicode = 71;
},
{
glyphname = H;
lastChange = "2026-03-25 13:43:04 +0000";
layers = (
{
anchors = (
{
name = bottom;
pos = (200,0);
},
{
name = center;
pos = (200,358);
},
{
name = top;
pos = (200,715);
},
{
name = topleft;
pos = (20,715);
}
);
hints = (
{
horizontal = 1;
place = (156.16, 46.84);
place = (156.16, 46.84);
type = Stem;
},
{
place = (51.91, 46.09);
place = (51.91, 46.09);
type = Stem;
},
{
place = (298, 51.16);
place = (298, 51.16);
type = Stem;
},
{
place = (51.91, 32.09);
place = (51.91, 32.09);
type = Stem;
}
);
layerId = m01;
shapes = (
{
closed = 1;
nodes = (
(104,0,o),
(108,21,o),
(109,47,cs),
(110,93,o),
(103,156,o),
(161,156,cs),
(191,156,o),
(202,156,o),
(229,156,cs),
(297,156,o),
(286,150,o),
(288,45,cs),
(289,25,o),
(292,0,o),
(314,0,cs),
(336,0,o),
(340,24,o),
(339,44,cs),
(327,226,o),
(340,521,o),
(340,660,c),
(340,674,o),
(340,715,o),
(325,715,cs),
(289,715,o),
(296,689,o),
(294,653,cs),
(291,520,o),
(288,384,o),
(288,251,cs),
(288,217,o),
(275,199,o),
(241,200,cs),
(171,203,ls),
(125,205,o),
(110,206,o),
(110,248,cs),
(110,253,ls),
(110,395,o),
(113,518,o),
(113,660,cs),
(113,673,o),
(125,715,o),
(99,719,cs),
(72,723,o),
(68,704,o),
(68,675,cs),
(65,465,o),
(62,255,o),
(62,45,cs),
(62,22,o),
(68,0,o),
(83,0,cs)
);
}
);
width = 400;
}
);
note = H;
unicode = 72;
},
{
glyphname = I;
lastChange = "2026-03-26 13:17:11 +0000";
layers = (
{
anchors = (
{
name = bottom;
pos = (120,0);
},
{
name = ogonek;
pos = (127,39);
},
{
name = top;
pos = (110,739);
},
{
name = topleft;
pos = (-10,715);
}
);
hints = (
{
horizontal = 1;
place = (25, 21);
target = up;
type = BottomGhost;
},
{
horizontal = 1;
place = (724, -20);
target = down;
type = TopGhost;
},
{
place = (123, 48);
place = (123, 48);
type = Stem;
},
{
place = (137, 41);
place = (137, 41);
type = Stem;
}
);
layerId = m01;
shapes = (
{
closed = 1;
nodes = (
(104,21,o),
(153,-20,o),
(153,76,cs),
(151,246,o),
(141,653,o),
(136,686,cs),
(134,698,o),
(125,734,o),
(104,715,cs),
(69,684,o),
(95,256,o),
(100,72,cs)
);
}
);
width = 240;
}
);
note = I;
unicode = 73;
},
{
glyphname = J;
lastChange = "2026-03-25 13:43:08 +0000";
layers = (
{
anchors = (
{
name = bottom;
pos = (150,0);
},
{
name = top;
pos = (180,715);
}
);
hints = (
{
horizontal = 1;
place = (685, 32.22);
place = (685, 32.22);
type = Stem;
},
{
place = (47.21, 64.79);
place = (47.21, 64.79);
type = Stem;
},
{
place = (163.25, 41.58);
place = (163.25, 41.58);
type = Stem;
},
{
place = (155, 47);
place = (155, 47);
type = Stem;
}
);
layerId = m01;
shapes = (
{
closed = 1;
nodes = (
(178,34,o),
(211,143,o),
(212,194,cs),
(221,386,o),
(197,504,o),
(209,656,c),
(225,665,o),
(248,663,o),
(254,681,cs),
(268,721,o),
(119,731,o),
(109,700,cs),
(97,663,o),
(164,680,o),
(164,640,cs),
(164,626,o),
(162,593,o),
(162,579,cs),
(162,327,o),
(165,358,o),
(155,183,cs),
(153,130,o),
(142,91,o),
(122,91,cs),
(82,91,o),
(113,221,o),
(60,193,cs),
(31,178,o),
(59,34,o),
(125,34,cs)
);
}
);
width = 290;
}
);
note = J;
unicode = 74;
},
{
glyphname = K;
lastChange = "2026-03-26 16:18:26 +0000";
layers = (
{
anchors = (
{
name = bottom;
pos = (148,0);
},
{
name = top;
pos = (148,715);
}
);
hints = (
{
horizontal = 1;
place = (25, 21);
target = up;
type = BottomGhost;
},
{
place = (136, 36);
place = (136, 36);
type = Stem;
},
{
place = (267, 23);
place = (267, 23);
type = Stem;
},
{
place = (259, 20);
place = (259, 20);
type = Stem;
}
);
layerId = m01;
shapes = (
{
closed = 1;
nodes = (
(138,5,o),
(126,141,o),
(128,177,c),
(187,85,o),
(198,36,o),
(218,10,c),
(252,0,o),
(269,-2,o),
(232,85,cs),
(210,138,o),
(170,205,o),
(170,256,cs),
(170,278,o),
(234,464,o),
(253,572,c),
(257,587,o),
(274,685,o),
(235,687,c),
(193,668,o),
(207,565,o),
(135,324,c),
(129,333,o),
(115,542,o),
(111,650,cs),
(108,733,o),
(60,745,o),
(60,650,cs),
(60,580,o),
(91,190,o),
(81,53,cs),
(80,40,o),
(74,5,o),
(102,5,cs)
);
}
);
width = 315;
}
);
note = K;
unicode = 75;
},
{
glyphname = L;
lastChange = "2026-04-06 08:38:38 +0000";
layers = (
{
anchors = (
{
name = bottom;
pos = (160,0);
},
{
name = center;
pos = (160,358);
},
{
name = top;
pos = (160,728);
},
{
name = topright;
pos = (290,715);
}
);
hints = (
{
horizontal = 1;
place = (12.45, 48.55);
place = (12.45, 48.55);
type = Stem;
},
{
place = (75, 44);
place = (75, 44);
type = Stem;
},
{
place = (92, 40);
place = (92, 40);
type = Stem;
}
);
layerId = m01;
shapes = (
{
closed = 1;
nodes = (
(119,1,o),
(236,5,o),
(236,44,cs),
(236,79,o),
(176,64,o),
(139,70,c),
(139,250,o),
(149,505,o),
(152,669,cs),
(152,742,o),
(105,719,o),
(102,678,cs),
(96,467,o),
(74,37,o),
(94,21,cs)
);
}
);
width = 310;
}
);
note = L;
unicode = 76;
},
{
glyphname = M;
lastChange = "2026-04-06 11:06:08 +0000";
layers = (
{
anchors = (
{
name = bottom;
pos = (285,0);
},
{
name = top;
pos = (285,715);
}
);
hints = (
{
place = (-20.29, 29.29);
place = (-20.29, 29.29);
type = Stem;
}
);
layerId = m01;
shapes = (
{
closed = 1;
nodes = (
(502,-4,o),
(507,20,o),
(507,46,cs),
(493,246,o),
(479,447,o),
(463,647,cs),
(461,665,o),
(454,699,o),
(434,699,cs),
(415,699,o),
(399,675,o),
(393,658,cs),
(361,557,o),
(331,454,o),
(302,351,cs),
(293,322,o),
(288,276,o),
(281,246,c),
(273,255,o),
(251,457,o),
(241,541,cs),
(236,586,o),
(231,631,o),
(222,675,cs),
(219,687,o),
(203,704,o),
(191,704,cs),
(190,704,ls),
(182,704,o),
(167,688,o),
(161,677,cs),
(140,637,o),
(75,253,o),
(59,71,cs),
(57,46,o),
(45,23,o),
(75,10,cs),
(111,-6,o),
(110,61,o),
(114,87,cs),
(135,221,o),
(154,368,o),
(174,502,cs),
(176,514,o),
(176,529,o),
(185,548,c),
(197,534,o),
(225,241,o),
(244,134,cs),
(256,83,o),
(296,92,o),
(305,133,cs),
(321,206,o),
(385,488,o),
(412,564,c),
(423,534,o),
(426,504,o),
(428,475,cs),
(438,333,o),
(447,191,o),
(458,50,cs),
(459,34,o),
(459,9,o),
(475,4,cs)
);
}
);
width = 552;
}
);
note = M;
unicode = 77;
},
{
glyphname = N;
lastChange = "2026-03-25 13:43:17 +0000";
layers = (
{
anchors = (
{
name = bottom;
pos = (200,0);
},
{
name = top;
pos = (201,723);
}
);
hints = (
{
place = (62, 43);
place = (62, 43);
type = Stem;
},
{
place = (75, 39.09);
place = (75, 39.09);
type = Stem;
},
{
place = (290, 35);
place = (290, 35);
type = Stem;
},
{
place = (291, 48);
place = (291, 48);
type = Stem;
}
);
layerId = m01;
shapes = (
{
closed = 1;
nodes = (
(114,-2,o),
(117,25,o),
(117,48,cs),
(117,50,ls),
(117,202,o),
(108,430,o),
(105,517,c),
(105,609,l),
(119,602,o),
(124,585,o),
(207,269,cs),
(227,194,o),
(247,119,o),
(270,44,cs),
(273,34,o),
(286,19,o),
(298,19,cs),
(322,19,o),
(331,41,o),
(331,67,cs),
(336,267,o),
(335,434,o),
(339,633,cs),
(339,662,o),
(335,732,o),
(305,710,cs),
(284,695,o),
(291,659,o),
(291,633,cs),
(290,564,o),
(291,161,o),
(288,172,cs),
(270,235,ls),
(229,380,o),
(192,502,o),
(152,646,cs),
(145,669,o),
(135,715,o),
(98,715,cs),
(71,715,o),
(57,632,o),
(57,605,cs),
(60,423,o),
(65,230,o),
(70,48,cs),
(70,35,o),
(66,13,o),
(83,8,cs)
);
}
);
width = 400;
}
);
note = N;
unicode = 78;
},
{
glyphname = O;
lastChange = "2026-03-26 18:58:21 +0000";
layers = (
{
anchors = (
{
name = bottom;
pos = (151,0);
},
{
name = center;
pos = (151,358);
},
{
name = ogonek;
pos = (155,8);
},
{
name = top;
pos = (179,728);
},
{
name = topleft;
pos = (-19,715);
},
{
name = topright;
pos = (320,715);
}
);
hints = (
{
horizontal = 1;
place = (28.49, 45.51);
place = (28.49, 45.51);
type = Stem;
},
{
place = (90.28, 44.47);
place = (90.28, 44.47);
type = Stem;
},
{
place = (256.22, 41.11);
place = (256.22, 41.11);
type = Stem;
}
);
layerId = m01;
shapes = (
{
closed = 1;
nodes = (
(202,2,o),
(237,55,o),
(243,79,cs),
(262,157,o),
(268,246,o),
(268,445,cs),
(268,508,o),
(246,720,o),
(183,720,cs),
(114,720,o),
(74,576,o),
(68,410,cs),
(65,333,o),
(39,155,o),
(98,55,cs),
(117,22,o),
(130,0,o),
(167,0,c)
);
},
{
closed = 1;
nodes = (
(107,83,o),
(106,244,o),
(115,329,cs),
(124,427,o),
(117,625,o),
(177,665,c),
(222,665,o),
(220,445,o),
(220,366,cs),
(220,301,o),
(221,50,o),
(159,50,c)
);
}
);
width = 330;
}
);
note = O;
unicode = 79;
},
{
glyphname = P;
lastChange = "2026-04-08 18:03:49 +0000";
layers = (
{
anchors = (
{
name = bottom;
pos = (150,0);
},
{
name = top;
pos = (150,715);
}
);
hints = (
{
place = (68, 30);
place = (68, 30);
type = Stem;
},
{
place = (197.28, 49.19);
place = (197.28, 49.19);
type = Stem;
},
{
place = (55.2, 53.8);
place = (55.2, 53.8);
type = Stem;
}
);
layerId = m01;
shapes = (
{
closed = 1;
nodes = (
(123,2,o),
(119,33,o),
(118,47,cs),
(116,85,o),
(106,142,o),
(120,161,cs),
(204,275,o),
(246,378,o),
(246,517,cs),
(246,632,o),
(184,741,o),
(94,719,c),
(69,717,o),
(55,687,o),
(55,660,cs),
(55,638,o),
(64,215,o),
(68,41,cs),
(68,28,o),
(68,2,o),
(82,2,cs)
);
},
{
closed = 1;
nodes = (
(109,676,l),
(193,656,o),
(197,555,o),
(197,466,cs),
(197,377,o),
(104,152,o),
(105,247,cs)
);
}
);
width = 270;
}
);
note = P;
unicode = 80;
},
{
glyphname = Q;
lastChange = "2026-03-25 13:43:23 +0000";
layers = (
{
anchors = (
{
name = bottom;
pos = (200,0);
},
{
name = top;
pos = (200,715);
}
);
hints = (
{
place = (72.15, 46.53);
place = (72.15, 46.53);
type = Stem;
},
{
place = (223.4, 65.56);
place = (223.4, 65.56);
type = Stem;
},
{
place = (270.31, 42.73);
place = (270.31, 42.73);
type = Stem;
}
);
layerId = m01;
shapes = (
{
closed = 1;
nodes = (
(221,1,o),
(243,36,o),
(262,49,c),
(280,34,o),
(291,7,o),
(312,7,cs),
(385,7,o),
(289,86,o),
(289,129,cs),
(289,131,ls),
(289,193,o),
(313,282,o),
(313,349,cs),
(313,443,o),
(300,538,o),
(285,630,cs),
(278,672,o),
(252,718,o),
(202,717,c),
(113,718,o),
(88,538,o),
(72,340,cs),
(69,302,o),
(72,131,o),
(127,51,cs),
(147,21,o),
(162,1,o),
(186,1,cs)
);
},
{
closed = 1;
nodes = (
(134,116,o),
(119,253,o),
(119,324,cs),
(119,452,o),
(162,669,o),
(199,669,c),
(265,669,o),
(272,390,o),
(266,332,cs),
(263,289,o),
(256,247,o),
(251,203,c),
(236,209,o),
(225,240,o),
(201,226,cs),
(179,213,o),
(223,116,o),
(223,104,cs),
(223,85,o),
(214,68,o),
(193,52,c)
);
}
);
width = 400;
}
);
note = Q;
unicode = 81;
},
{
glyphname = R;
lastChange = "2026-04-08 16:59:52 +0000";
layers = (
{
anchors = (
{
name = bottom;
pos = (159,0);
},
{
name = top;
pos = (138,715);
}
);
hints = (
{
horizontal = 1;
place = (24, 21);
target = up;
type = BottomGhost;
},
{
place = (54, 35.14);
place = (54, 35.14);
type = Stem;
},
{
place = (181.11, 42.02);
place = (181.11, 42.02);
type = Stem;
},
{
place = (54, 44);
place = (54, 44);
type = Stem;
}
);
layerId = m01;
shapes = (
{
closed = 1;
nodes = (
(96,3,o),
(89,58,o),
(89,102,cs),
(89,141,o),
(139,193,o),
(175,147,cs),
(194,123,o),
(238,15,o),
(253,15,cs),
(317,15,o),
(219,170,o),
(167,218,c),
(184,245,o),
(243,423,o),
(243,515,cs),
(243,616,o),
(167,718,o),
(61,718,cs),
(34,718,o),
(48,198,o),
(45,102,cs),
(45,91,o),
(34,30,o),
(57,5,c)
);
},
{
closed = 1;
nodes = (
(98,659,l),
(167,633,o),
(191,564,o),
(191,511,cs),
(191,403,o),
(98,189,o),
(98,233,cs)
);
}
);
width = 302;
}
);
note = R;
unicode = 82;
},
{
glyphname = S;
lastChange = "2026-03-26 13:22:19 +0000";
layers = (
{
anchors = (
{
name = bottom;
pos = (150,10);
},
{
name = top;
pos = (150,715);
}
);
hints = (
{
place = (97, 53);
place = (97, 53);
type = Stem;
},
{
place = (174, 44);
place = (174, 44);
type = Stem;
}
);
layerId = m01;
shapes = (
{
closed = 1;
nodes = (
(184,0,o),
(218,44,o),
(218,110,cs),
(218,170,o),
(150,494,o),
(150,542,cs),
(150,586,o),
(161,632,o),
(198,668,cs),
(215,685,o),
(174,754,o),
(119,675,cs),
(104,653,o),
(97,577,o),
(97,552,c),
(112,444,o),
(159,204,o),
(174,112,cs),
(174,91,o),
(170,76,o),
(148,60,c),
(121,77,o),
(116,85,o),
(95,77,cs),
(51,60,o),
(112,0,o),
(143,0,cs)
);
}
);
width = 300;
}
);
note = S;
unicode = 83;
},
{
glyphname = T;
lastChange = "2026-04-08 18:03:23 +0000";
layers = (
{
anchors = (
{
name = bottom;
pos = (149,4);
},
{
name = center;
pos = (134,358);
},
{
name = top;
pos = (134,725);
}
);
hints = (
{
horizontal = 1;
place = (686.15, 38.52);
place = (686.15, 38.52);
type = Stem;
},
{
place = (76, 36.92);
place = (76, 36.92);
type = Stem;
},
{
place = (89, 40.08);
place = (89, 40.08);
type = Stem;
}
);
layerId = m01;
shapes = (
{
closed = 1;
nodes = (
(169,241,o),
(152,449,o),
(152,636,cs),
(152,670,o),
(155,680,o),
(191,680,cs),
(264,680,o),
(223,725,o),
(146,725,cs),
(20,725,o),
(19,680,o),
(104,673,c),
(106,652,o),
(110,629,o),
(110,605,cs),
(115,425,o),
(118,224,o),
(123,43,cs),
(123,-8,o),
(169,-16,o),
(169,25,cs)
);
}
);
width = 264;
}
);
note = T;
unicode = 84;
},
{
glyphname = U;
lastChange = "2026-03-26 19:00:35 +0000";
layers = (
{
anchors = (
{
name = bottom;
pos = (192,1);
},
{
name = ogonek;
pos = (189,26);
},
{
name = top;
pos = (185,741);
},
{
name = topright;
pos = (380,715);
}
);
hints = (
{
place = (64.7, 52.64);
place = (64.7, 52.64);
type = Stem;
},
{
place = (81.39, 47.74);
place = (81.39, 47.74);
type = Stem;
},
{
place = (236, 51.75);
place = (236, 51.75);
type = Stem;
},
{
place = (248, 44);
place = (248, 44);
type = Stem;
}
);
layerId = m01;
shapes = (
{
closed = 1;
nodes = (
(165,-1,o),
(229,-17,o),
(251,64,cs),
(285,191,o),
(288,319,o),
(288,472,cs),
(288,591,o),
(288,626,o),
(292,686,cs),
(292,727,o),
(239,727,o),
(236,666,cs),
(231,504,o),
(226,79,o),
(196,63,c),
(124,72,o),
(117,325,o),
(117,389,cs),
(117,481,o),
(129,606,o),
(129,686,cs),
(129,740,o),
(64,739,o),
(80,682,cs),
(83,669,o),
(65,459,o),
(65,369,cs),
(65,291,o),
(80,106,o),
(133,39,cs)
);
}
);
width = 352;
}
);
note = U;
unicode = 85;
},
{
glyphname = V;
kernLeft = VV;
kernRight = VV;
lastChange = "2026-04-08 18:02:39 +0000";
layers = (
{
anchors = (
{
name = bottom;
pos = (150,0);
},
{
name = top;
pos = (150,715);
}
);
hints = (
{
place = (19, 22);
place = (19, 22);
type = Stem;
}
);
layerId = m01;
shapes = (
{
closed = 1;
nodes = (
(179,1,o),
(175,52,o),
(181,80,cs),
(216,270,o),
(250,479,o),
(283,673,cs),
(283,740,o),
(240,696,o),
(236,673,cs),
(212,547,o),
(188,390,o),
(166,263,cs),
(159,225,o),
(154,188,o),
(148,150,c),
(133,191,o),
(131,230,o),
(125,270,cs),
(105,388,o),
(80,574,o),
(61,694,cs),
(53,745,o),
(6,730,o),
(19,642,cs),
(48,458,o),
(78,245,o),
(110,62,cs),
(113,43,o),
(123,1,o),
(142,1,cs)
);
}
);
width = 291;
}
);
note = V;
unicode = 86;
},
{
glyphname = W;
kernLeft = WW;
kernRight = WW;
lastChange = "2026-04-08 18:02:30 +0000";
layers = (
{
anchors = (
{
name = bottom;
pos = (240,0);
},
{
name = top;
pos = (240,715);
}
);
layerId = m01;
shapes = (
{
closed = 1;
nodes = (
(188,7,o),
(194,57,o),
(242,137,c),
(267,70,o),
(285,10,o),
(312,10,cs),
(336,10,o),
(341,57,o),
(346,70,cs),
(356,95,o),
(459,641,o),
(465,665,cs),
(478,715,o),
(432,736,o),
(424,701,cs),
(383,509,o),
(349,304,o),
(307,113,c),
(285,133,o),
(264,206,o),
(242,206,c),
(204,206,o),
(188,135,o),
(169,103,c),
(120,310,o),
(99,471,o),
(62,670,cs),
(60,686,o),
(32,735,o),
(17,690,c),
(17,624,o),
(94,198,o),
(124,60,cs),
(127,47,o),
(139,7,o),
(164,7,cs)
);
}
);
width = 485;
}
);
note = W;
unicode = 87;
},
{
glyphname = X;
lastChange = "2026-03-25 13:44:13 +0000";
layers = (
{
anchors = (
{
name = bottom;
pos = (230,0);
},
{
name = top;
pos = (230,715);
}
);
hints = (
{
place = (26, 27);
place = (26, 27);
type = Stem;
},
{
place = (176.13, 73.9);
place = (176.13, 73.9);
type = Stem;
}
);
layerId = m01;
shapes = (
{
closed = 1;
nodes = (
(360,-8,o),
(302,88,o),
(267,153,cs),
(242,199,o),
(246,237,o),
(270,283,cs),
(327,395,o),
(370,557,o),
(402,678,cs),
(408,707,o),
(406,734,o),
(374,724,cs),
(332,711,o),
(289,417,o),
(216,281,c),
(158,421,o),
(114,725,o),
(77,730,c),
(31,737,o),
(42,704,o),
(53,658,cs),
(75,554,o),
(111,405,o),
(154,308,cs),
(182,245,o),
(186,185,o),
(148,128,cs),
(118,80,o),
(87,10,o),
(120,8,cs),
(154,6,o),
(182,97,o),
(214,142,c),
(249,97,o),
(283,-8,o),
(315,-8,cs)
);
}
);
width = 460;
}
);
note = X;
unicode = 88;
},
{
glyphname = Y;
kernLeft = WY;
kernRight = YW;
lastChange = "2026-04-08 18:03:08 +0000";
layers = (
{
anchors = (
{
name = bottom;
pos = (163,0);
},
{
name = top;
pos = (163,715);
},
{
name = topleft;
pos = (-17,715);
}
);
hints = (
{
place = (205, 37.14);
place = (205, 37.14);
type = Stem;
}
);
layerId = m01;
shapes = (
{
closed = 1;
nodes = (
(219,50,o),
(239,121,o),
(245,144,cs),
(284,311,o),
(354,687,o),
(330,703,cs),
(293,728,o),
(294,701,o),
(284,659,cs),
(258,551,o),
(278,484,o),
(212,215,c),
(180,234,o),
(71,679,o),
(31,711,cs),
(18,721,o),
(8,701,o),
(8,681,c),
(8,609,o),
(125,319,o),
(182,159,c),
(204,132,o),
(149,65,o),
(150,27,cs),
(150,18,o),
(178,-22,o),
(201,19,cs)
);
}
);
width = 340;
}
);
note = Y;
unicode = 89;
},
{
glyphname = Z;
lastChange = "2026-03-26 16:19:25 +0000";
layers = (
{
anchors = (
{
name = bottom;
pos = (189,0);
},
{
name = center;
pos = (189,358);
},
{
name = top;
pos = (207,734);
}
);
hints = (
{
horizontal = 1;
place = (15, 42.51);
place = (15, 42.51);
type = Stem;
},
{
horizontal = 1;
place = (692, 34.06);
place = (692, 34.06);
type = Stem;
},
{
place = (0.75, 299.8);
place = (0.75, 299.8);
type = Stem;
}
);
layerId = m01;
shapes = (
{
closed = 1;
nodes = (
(316,6,o),
(314,49,o),
(285,49,cs),
(221,49,o),
(124,51,o),
(97,64,c),
(111,97,o),
(287,500,o),
(331,620,cs),
(349,670,o),
(337,689,o),
(285,695,cs),
(227,701,o),
(169,707,o),
(111,707,cs),
(109,707,ls),
(65,707,o),
(69,717,o),
(69,673,c),
(120,645,o),
(212,660,o),
(290,653,c),
(278,579,o),
(120,287,o),
(47,70,cs),
(33,30,o),
(38,14,o),
(82,12,cs),
(141,9,o),
(201,6,o),
(261,6,cs)
);
}
);
width = 369;
}
);
note = Z;
unicode = 90;
},
{
glyphname = bracketleft;
lastChange = "2026-04-06 10:45:40 +0000";
layers = (
{
hints = (
{
horizontal = 1;
place = (-24.83, 55.99);
place = (-24.83, 55.99);
type = Stem;
},
{
horizontal = 1;
place = (623.99, 52.9);
place = (623.99, 52.9);
type = Stem;
},
{
place = (124, 59);
place = (124, 59);
type = Stem;
},
{
place = (135, 48);
place = (135, 48);
type = Stem;
}
);
layerId = m01;
shapes = (
{
closed = 1;
nodes = (
(278,5,o),
(253,67,o),
(210,62,cs),
(178,54,o),
(159,74,o),
(159,117,cs),
(159,130,o),
(158,143,o),
(158,608,cs),
(158,642,o),
(168,661,o),
(199,653,cs),
(220,650,o),
(232,684,o),
(212,695,cs),
(165,726,o),
(113,693,o),
(110,646,cs),
(99,372,o),
(94,333,o),
(110,63,cs),
(112,29,o),
(134,11,o),
(167,8,cs),
(209,5,ls)
);
}
);
width = 332;
}
);
note = bracketleft;
unicode = 91;
},
{
glyphname = bracketright;
lastChange = "2026-04-06 10:45:48 +0000";
layers = (
{
hints = (
{
horizontal = 1;
place = (-30, 51);
place = (-30, 51);
type = Stem;
},
{
horizontal = 1;
place = (618.08, 56.61);
place = (618.08, 56.61);
type = Stem;
},
{
place = (117.89, 52);
place = (117.89, 52);
type = Stem;
}
);
layerId = m01;
shapes = (
{
closed = 1;
nodes = (
(187,-2,o),
(220,33,o),
(224,96,cs),
(245,431,o),
(250,606,o),
(249,616,cs),
(245,672,o),
(212,705,o),
(166,705,cs),
(82,705,o),
(83,636,o),
(166,648,cs),
(187,648,o),
(196,640,o),
(197,621,cs),
(197,441,o),
(181,307,o),
(171,137,cs),
(167,69,o),
(168,70,o),
(103,51,cs),
(55,41,o),
(90,-2,o),
(131,-2,cs)
);
}
);
width = 349;
}
);
note = bracketright;
unicode = 93;
},
{
glyphname = asciicircum;
lastChange = "2026-03-25 13:48:45 +0000";
layers = (
{
hints = (
{
horizontal = 1;
place = (615, 155.32);
place = (615, 155.32);
type = Stem;
},
{
place = (138, 250.41);
place = (138, 250.41);
type = Stem;
}
);
layerId = m01;
shapes = (
{
closed = 1;
nodes = (
(70,595,o),
(104,633,cs),
(125,656,o),
(143,682,o),
(172,717,c),
(196,684,o),
(221,648,o),
(259,631,cs),
(290,616,o),
(304,660,o),
(286,678,cs),
(263,701,o),
(194,770,o),
(162,770,cs),
(127,770,o),
(71,684,o),
(50,656,cs),
(25,627,o)
);
}
);
width = 340;
}
);
note = asciicircum;
unicode = 94;
},
{
glyphname = underscore;
lastChange = "2026-04-06 09:27:24 +0000";
layers = (
{
hints = (
{
horizontal = 1;
place = (16.44, 49.78);
place = (16.44, 49.78);
type = Stem;
}
);
layerId = m01;
shapes = (
{
closed = 1;
nodes = (
(74,12,o),
(312,11,o),
(396,16,c),
(443,49,o),
(437,70,o),
(380,73,cs),
(374,74,o),
(232,60,o),
(64,65,cs),
(27,66,o),
(35,31,o),
(68,15,cs)
);
}
);
width = 467;
}
);
note = underscore;
unicode = 95;
},
{
glyphname = a;
lastChange = "2026-04-08 16:56:12 +0000";
layers = (
{
anchors = (
{
name = bottom;
pos = (168,0);
},
{
name = ogonek;
pos = (288,10);
},
{
name = top;
pos = (200,190);
}
);
hints = (
{
horizontal = 1;
place = (4.97, 41.86);
place = (4.97, 41.86);
type = Stem;
},
{
horizontal = 1;
origin = (0,8);
place = (118, 45.87);
type = Stem;
},
{
place = (289, 43.13);
place = (289, 43.13);
type = Stem;
}
);
layerId = m01;
shapes = (
{
closed = 1;
nodes = (
(124,-10,o),
(199,-17,o),
(272,10,c),
(285,-33,o),
(317,-8,o),
(315,12,cs),
(311,48,o),
(308,83,o),
(301,118,cs),
(291,173,o),
(245,201,o),
(182,193,cs),
(158,191,o),
(142,156,o),
(184,159,cs),
(235,160,o),
(258,142,o),
(265,97,c),
(235,110,ls),
(190,130,o),
(141,131,o),
(92,118,cs),
(61,109,o),
(33,98,o),
(30,65,cs),
(28,40,o),
(51,14,o),
(86,1,cs)
);
},
{
closed = 1;
nodes = (
(193,10,o),
(93,20,o),
(70,63,c),
(127,104,o),
(230,94,o),
(245,46,c)
);
}
);
width = 358;
}
);
note = a;
unicode = 97;
},
{
glyphname = b;
lastChange = "2026-04-08 16:48:39 +0000";
layers = (
{
anchors = (
{
name = bottom;
pos = (175,0);
},
{
name = center;
pos = (175,179);
},
{
name = top;
pos = (175,317);
}
);
hints = (
{
horizontal = 1;
place = (1.56, 42.25);
place = (1.56, 42.25);
type = Stem;
},
{
horizontal = 1;
place = (110.04, 46.37);
place = (110.04, 46.37);
type = Stem;
},
{
place = (19, 45);
place = (19, 45);
type = Stem;
},
{
place = (31, 43);
place = (31, 43);
type = Stem;
},
{
place = (19, 38);
place = (19, 38);
type = Stem;
}
);
layerId = m01;
shapes = (
{
closed = 1;
nodes = (
(65,2,o),
(128,1,o),
(156,2,cs),
(207,4,o),
(314,24,o),
(314,75,cs),
(314,132,o),
(235,156,o),
(178,156,cs),
(129,156,o),
(122,149,o),
(76,142,c),
(76,277,o),
(83,395,o),
(86,513,cs),
(86,557,o),
(44,557,o),
(44,513,cs),
(44,232,o),
(17,15,o),
(37,2,c)
);
},
{
closed = 1;
nodes = (
(113,46,o),
(113,46,o),
(78,50,c),
(73,57,o),
(71,76,o),
(72,91,c),
(113,104,o),
(150,110,o),
(181,110,cs),
(226,110,o),
(268,99,o),
(268,71,cs),
(268,42,o),
(182,40,o),
(136,44,cs)
);
}
);
width = 337;
}
);
note = b;
unicode = 98;
},
{
glyphname = c;
lastChange = "2026-04-08 16:42:58 +0000";
layers = (
{
anchors = (
{
name = bottom;
pos = (163,10);
},
{
name = top;
pos = (163,167);
}
);
hints = (
{
horizontal = 1;
place = (2.59, 44.21);
place = (2.59, 44.21);
type = Stem;
},
{
horizontal = 1;
place = (114.39, 41.99);
place = (114.39, 41.99);
type = Stem;
},
{
place = (19.76, 46.24);
place = (19.76, 46.24);
type = Stem;
}
);
layerId = m01;
shapes = (
{
closed = 1;
nodes = (
(86,62,o),
(86,66,cs),
(86,94,o),
(149,110,o),
(172,113,cs),
(200,117,o),
(229,114,o),
(255,109,cs),
(285,102,o),
(306,138,o),
(263,150,c),
(188,156,o),
(169,154,o),
(149,150,cs),
(98,140,o),
(30,102,o),
(30,58,cs),
(30,22,o),
(81,3,o),
(149,3,cs),
(183,3,o),
(217,3,o),
(252,4,cs),
(306,4,o),
(283,50,o),
(245,50,cs),
(213,49,o),
(181,47,o),
(150,47,cs),
(109,47,o)
);
}
);
width = 326;
}
);
note = c;
unicode = 99;
},
{
glyphname = d;
lastChange = "2026-04-08 16:48:43 +0000";
layers = (
{
anchors = (
{
name = bottom;
pos = (180,0);
},
{
name = center;
pos = (180,179);
},
{
name = top;
pos = (192,549);
},
{
name = topright;
pos = (396,544);
}
);
hints = (
{
horizontal = 1;
place = (-1.16, 41.42);
place = (-1.16, 41.42);
type = Stem;
},
{
horizontal = 1;
place = (106.01, 46.95);
place = (106.01, 46.95);
type = Stem;
},
{
place = (280, 37);
place = (280, 37);
type = Stem;
},
{
place = (262, 42);
place = (262, 42);
type = Stem;
}
);
layerId = m01;
shapes = (
{
closed = 1;
nodes = (
(232,-1,o),
(269,2,o),
(307,2,c),
(316,184,o),
(306,209,o),
(298,515,cs),
(298,553,o),
(256,552,o),
(256,512,cs),
(259,416,o),
(260,300,o),
(267,137,c),
(247,143,o),
(200,153,o),
(162,153,cs),
(102,153,o),
(30,132,o),
(30,74,cs),
(30,43,o),
(49,26,o),
(80,16,cs),
(118,2,o),
(157,-1,o),
(197,-1,cs)
);
},
{
closed = 1;
nodes = (
(161,40,o),
(75,42,o),
(75,67,cs),
(75,90,o),
(92,106,o),
(164,106,cs),
(199,106,o),
(235,99,o),
(270,88,c),
(271,74,o),
(272,61,o),
(274,42,c),
(251,41,o),
(228,40,o),
(206,40,cs)
);
}
);
width = 341;
}
);
note = d;
unicode = 100;
},
{
glyphname = e;
lastChange = "2026-04-08 16:55:33 +0000";
layers = (
{
anchors = (
{
name = bottom;
pos = (152,-20);
},
{
name = ogonek;
pos = (198,-10);
},
{
name = top;
pos = (158,169);
}
);
hints = (
{
horizontal = 1;
place = (-31, 38);
place = (-31, 38);
type = Stem;
},
{
horizontal = 1;
place = (36.4, 42.44);
place = (36.4, 42.44);
type = Stem;
},
{
horizontal = 1;
place = (143.35, 45.63);
place = (143.35, 45.63);
type = Stem;
},
{
place = (21.56, 263.55);
place = (21.56, 263.55);
type = Stem;
}
);
layerId = m01;
shapes = (
{
closed = 1;
nodes = (
(227,-19,o),
(226,2,o),
(203,7,cs),
(177,15,o),
(101,12,o),
(101,37,c),
(113,36,o),
(146,33,o),
(158,33,cs),
(217,33,o),
(285,55,o),
(285,100,cs),
(285,147,o),
(210,170,o),
(158,170,cs),
(89,170,o),
(22,136,o),
(22,75,cs),
(22,-4,o),
(154,-44,o),
(205,-27,cs)
);
},
{
closed = 1;
nodes = (
(122,71,o),
(96,75,o),
(69,81,c),
(80,122,o),
(130,129,o),
(162,129,cs),
(190,129,o),
(216,121,o),
(241,103,c),
(225,82,o),
(189,71,o),
(146,71,cs)
);
}
);
width = 303;
}
);
note = e;
unicode = 101;
},
{
glyphname = f;
lastChange = "2026-04-08 15:33:31 +0000";
layers = (
{
anchors = (
{
name = bottom;
pos = (135,0);
},
{
name = top;
pos = (135,800);
}
);
hints = (
{
horizontal = 1;
place = (121, 47.44);
place = (121, 47.44);
type = Stem;
},
{
horizontal = 1;
place = (535.92, 48.34);
place = (535.92, 48.34);
type = Stem;
},
{
place = (100.75, 48.25);
place = (100.75, 48.25);
type = Stem;
},
{
horizontal = 1;
place = (115.93, 42.07);
place = (115.93, 42.07);
type = Stem;
},
{
place = (110, 39);
place = (110, 39);
type = Stem;
}
);
layerId = m01;
shapes = (
{
closed = 1;
nodes = (
(118,-14,o),
(161,-11,o),
(161,30,c),
(158,72,o),
(156,97,o),
(155,126,c),
(177,124,o),
(197,121,o),
(217,121,cs),
(242,121,o),
(249,145,o),
(231,160,cs),
(215,171,o),
(167,168,o),
(149,168,c),
(149,247,o),
(148,407,o),
(149,486,cs),
(149,504,o),
(155,530,o),
(161,539,cs),
(167,548,o),
(195,536,o),
(198.96,535.92,cs),
(216,536,o),
(229,560,o),
(203,577,cs),
(177,592,o),
(139,583,o),
(124,557,cs),
(117,545,o),
(111,530,o),
(110,515,cs),
(103,397,o),
(101,275,o),
(101,167,c),
(87,164,o),
(69,162,o),
(51,158,cs),
(20,154,o),
(21,116,o),
(47.94,115.93,cs),
(62,116,o),
(87,122,o),
(108,124,c),
(111,89,o),
(113,58,o),
(115,27,cs)
);
}
);
width = 270;
}
);
note = f;
unicode = 102;
},
{
glyphname = g;
lastChange = "2026-04-08 16:22:41 +0000";
layers = (
{
anchors = (
{
name = bottom;
pos = (163,-130);
},
{
name = top;
pos = (163,177);
}
);
hints = (
{
horizontal = 1;
place = (-151.92, 49.68);
place = (-151.92, 49.68);
type = Stem;
},
{
horizontal = 1;
place = (4, 52.04);
place = (4, 52.04);
type = Stem;
},
{
horizontal = 1;
place = (109.37, 42.31);
place = (109.37, 42.31);
type = Stem;
},
{
place = (92, 45);
place = (92, 45);
type = Stem;
},
{
place = (236, 41);
place = (236, 41);
type = Stem;
},
{
place = (230, 65.26);
place = (230, 65.26);
type = Stem;
}
);
layerId = m01;
shapes = (
{
closed = 1;
nodes = (
(192,-152,o),
(228,-125,o),
(243,-96,cs),
(260,-63,o),
(266,29,o),
(286,60,cs),
(301,84,o),
(298,111,o),
(277,131,c),
(277,148,o),
(277,164,o),
(276,181,cs),
(276,212,o),
(236,213,o),
(236,180,cs),
(236,148,l),
(207,142,o),
(202,152,o),
(166.99,151.68,cs),
(116,152,o),
(31,132,o),
(30.87,81.14,cs),
(31,13,o),
(161,13,o),
(226,4,c),
(220,-20,o),
(214,-49,o),
(203,-76,cs),
(195.8,-95.2,o),
(183,-103,o),
(163.48,-102.24,cs),
(147,-102,o),
(140,-70,o),
(137,-53,cs),
(132,-17,o),
(92,-21,o),
(92,-56,cs),
(92,-93,o),
(110,-152,o),
(158.93,-151.92,cs)
);
},
{
closed = 1;
nodes = (
(140.56,56.04,o),
(75,69,o),
(75,83,cs),
(75,106,o),
(137.97,109.37,o),
(169.93,109.37,cs),
(189.73,109.37,o),
(209.72,106.36,o),
(230,101,c),
(230,64,l),
(217.14,58.59,o),
(198.91,56.04,o),
(179.17,56.04,cs)
);
}
);
width = 326;
}
);
note = g;
unicode = 103;
},
{
glyphname = h;
lastChange = "2026-04-08 15:35:19 +0000";
layers = (
{
anchors = (
{
name = bottom;
pos = (173,0);
},
{
name = center;
pos = (173,400);
},
{
name = top;
pos = (173,800);
}
);
hints = (
{
horizontal = 1;
place = (107, 43.23);
place = (107, 43.23);
type = Stem;
},
{
place = (55, 42);
place = (55, 42);
type = Stem;
},
{
place = (243, 62.33);
place = (243, 62.33);
type = Stem;
},
{
place = (56, 39);
place = (56, 39);
type = Stem;
},
{
place = (40.86, 46.14);
place = (40.86, 46.14);
type = Stem;
}
);
layerId = m01;
shapes = (
{
closed = 1;
nodes = (
(268,-8,o),
(305,-2,o),
(305.33,19.81,cs),
(305.33,24.56,o),
(287,68,o),
(278,84,cs),
(256,123,o),
(223,148,o),
(177,150,cs),
(146,152,o),
(87,124,o),
(85,125,c),
(89,232,o),
(97,468,o),
(97,478.5,cs),
(97,544,o),
(55,540,o),
(55,487,cs),
(47,285,o),
(44,161,o),
(41,22,cs),
(39,-15,o),
(84,-23,o),
(87,22,cs),
(91,65,o),
(113,107,o),
(172,107,cs),
(203,108,o),
(247,78,o),
(263,12,cs)
);
}
);
width = 346;
}
);
note = h;
unicode = 104;
},
{
glyphname = k;
lastChange = "2026-04-08 15:37:37 +0000";
layers = (
{
anchors = (
{
name = bottom;
pos = (170,0);
},
{
name = top;
pos = (170,800);
}
);
hints = (
{
horizontal = 1;
place = (61.44, 48.81);
place = (61.44, 48.81);
type = Stem;
},
{
place = (28, 45);
place = (28, 45);
type = Stem;
},
{
place = (161, 40.44);
place = (161, 40.44);
type = Stem;
},
{
place = (43, 40);
place = (43, 40);
type = Stem;
}
);
layerId = m01;
shapes = (
{
closed = 1;
nodes = (
(312,-4,o),
(314,10,o),
(306,30,c),
(284,53,o),
(233,100,o),
(187.21,110.25,cs),
(168,115,o),
(145.89,104.38,o),
(124,100,c),
(142,138,o),
(195,247,o),
(201.44,275.49,cs),
(208,305,o),
(174,316,o),
(161,288,cs),
(155,276,o),
(102,156,o),
(81,109,c),
(78,109,o),
(75,110,o),
(73,111,c),
(76,228,o),
(85,508,o),
(83,520,cs),
(79,553,o),
(43,535,o),
(43,510,cs),
(39,418,o),
(28,102,o),
(28,35,cs),
(28,4,o),
(57,-4,o),
(76,15,cs),
(107,49,o),
(160,68,o),
(191,61,cs),
(231,53,o),
(255,-4,o),
(285,-4,cs)
);
}
);
width = 339;
}
);
note = k;
unicode = 107;
},
{
glyphname = l;
lastChange = "2026-04-08 16:25:46 +0000";
layers = (
{
anchors = (
{
name = bottom;
pos = (115,0);
},
{
name = center;
pos = (115,400);
},
{
name = top;
pos = (105,591);
},
{
name = topright;
pos = (209,590);
}
);
hints = (
{
horizontal = 1;
place = (2, 47);
place = (2, 47);
type = Stem;
},
{
horizontal = 1;
place = (584, -20);
target = down;
type = TopGhost;
},
{
place = (69, 44);
place = (69, 44);
type = Stem;
},
{
place = (61.08, 43.92);
place = (61.08, 43.92);
type = Stem;
}
);
layerId = m01;
shapes = (
{
closed = 1;
nodes = (
(133,2,o),
(145,5,o),
(157,10,cs),
(169,14,o),
(186,55,o),
(147,52,cs),
(97,47,o),
(105,61,o),
(105,103,cs),
(107,240,o),
(112,550,o),
(110,567,c),
(104,589,o),
(65,595,o),
(68,559,cs),
(71,510,o),
(61,175,o),
(61.08,120.16,cs),
(61.08,76.03,o),
(62.82,66.85,o),
(66,50,cs),
(73,15,o),
(96,2,o),
(121,2,cs)
);
}
);
width = 229;
}
);
note = l;
unicode = 108;
},
{
glyphname = m;
lastChange = "2026-04-08 16:46:46 +0000";
layers = (
{
anchors = (
{
name = bottom;
pos = (283,0);
},
{
name = top;
pos = (283,357);
}
);
hints = (
{
horizontal = 1;
place = (85.71, 45.47);
place = (85.71, 45.47);
type = Stem;
},
{
place = (19, 38);
place = (19, 38);
type = Stem;
}
);
layerId = m01;
shapes = (
{
closed = 1;
nodes = (
(510,9,o),
(500,30,c),
(489,46,o),
(477,61,o),
(467,77,cs),
(442,114,o),
(416,134,o),
(381,134,cs),
(352,134,o),
(300,100,o),
(275,86,c),
(257,108,o),
(232,137,o),
(204,137,cs),
(172,137,o),
(112,100,o),
(83,88,c),
(80,98,o),
(79,113,o),
(73,125,cs),
(59,150,o),
(33,136,o),
(35,119,cs),
(39,90,o),
(44,59,o),
(53,31,cs),
(61,7,o),
(88,5,o),
(100,27,cs),
(121,64,o),
(172,92,o),
(198,92,cs),
(219,92,o),
(234,71,o),
(247,48,cs),
(258,30,o),
(268,20,o),
(278,20,cs),
(287,20,o),
(297,29,o),
(308,46,cs),
(323,70,o),
(346,87,o),
(369,87,cs),
(390,87,o),
(412,74,o),
(427,52,cs),
(434,43,o),
(455,6,o),
(462,3,cs),
(498,-10,o)
);
}
);
width = 550;
}
);
note = m;
unicode = 109;
},
{
glyphname = n;
lastChange = "2026-04-08 16:48:21 +0000";
layers = (
{
anchors = (
{
name = bottom;
pos = (179,0);
},
{
name = top;
pos = (179,147);
}
);
hints = (
{
horizontal = 1;
place = (85.48, 41.71);
place = (85.48, 41.71);
type = Stem;
},
{
horizontal = 1;
place = (148.19, -20);
target = down;
type = TopGhost;
},
{
place = (267, 46.47);
place = (267, 46.47);
type = Stem;
}
);
layerId = m01;
shapes = (
{
closed = 1;
nodes = (
(302,-23,o),
(342,-2,o),
(323,38,cs),
(315,54,o),
(307,70,o),
(298,85,cs),
(281,115,o),
(260,138,o),
(226,137,cs),
(154,136,o),
(112,93,o),
(78,76,c),
(76,91,o),
(75,106,o),
(72,122,cs),
(67,156,o),
(30,158,o),
(30,126,cs),
(30,122,o),
(37,60,o),
(39,32,cs),
(43,2,o),
(68,-18,o),
(91,17,cs),
(117,56,o),
(184,95,o),
(216,95,cs),
(236,95,o),
(253,74,o),
(264,52,cs),
(282,16,ls)
);
}
);
width = 348;
}
);
note = n;
unicode = 110;
},
{
glyphname = o;
lastChange = "2026-04-08 16:26:07 +0000";
layers = (
{
anchors = (
{
name = bottom;
pos = (173,0);
},
{
name = center;
pos = (173,179);
},
{
name = ogonek;
pos = (173,15);
},
{
name = top;
pos = (173,177);
},
{
name = topright;
pos = (306,357);
}
);
hints = (
{
horizontal = 1;
place = (-1.58, 45.58);
place = (-1.58, 45.58);
type = Stem;
},
{
horizontal = 1;
place = (121, 46);
place = (121, 46);
type = Stem;
},
{
place = (9, 278);
place = (9, 278);
type = Stem;
}
);
layerId = m01;
shapes = (
{
closed = 1;
nodes = (
(216,-2,o),
(307,12,o),
(307,74,cs),
(307,134,o),
(227,167,o),
(159,167,cs),
(107,167,o),
(37,151,o),
(30,95,cs),
(30,20,o),
(108,-2,o),
(168,-2,cs)
);
},
{
closed = 1;
nodes = (
(146,44,o),
(84,54,o),
(72,92,c),
(98,113,o),
(125,121,o),
(155,121,cs),
(192,121,o),
(249,112,o),
(262,70,c),
(236,50,o),
(208,44,o),
(178,44,cs)
);
}
);
width = 337;
}
);
note = o;
unicode = 111;
},
{
glyphname = p;
lastChange = "2026-04-08 16:42:50 +0000";
layers = (
{
anchors = (
{
name = bottom;
pos = (182,0);
},
{
name = top;
pos = (182,177);
}
);
hints = (
{
horizontal = 1;
place = (6, 44);
place = (6, 44);
type = Stem;
},
{
horizontal = 1;
place = (101.06, 46.31);
place = (101.06, 46.31);
type = Stem;
},
{
place = (79, 45);
place = (79, 45);
type = Stem;
},
{
place = (71, 39);
place = (71, 39);
type = Stem;
}
);
layerId = m01;
shapes = (
{
closed = 1;
nodes = (
(89,-213,o),
(134,-213,o),
(134,-172,cs),
(134,-68,o),
(133,-100,o),
(133,4,c),
(164,6,o),
(218,7,o),
(248,11,cs),
(273,15,o),
(298,24,o),
(315,45,cs),
(334,69,o),
(337,100,o),
(305,121,cs),
(289,131,o),
(270,139,o),
(208,147,c),
(180,147,o),
(151,142,o),
(123,135,c),
(122,153,o),
(125,177,o),
(116,205,cs),
(111,219,o),
(86,218,o),
(76,196,c),
(76,161,o),
(81,153,o),
(81,124,c),
(68,114,o),
(55,107,o),
(46,96,cs),
(25,71,o),
(41,52,o),
(83,69,c),
(89,-80,o),
(89,-77,o),
(89,-172,cs)
);
},
{
closed = 1;
nodes = (
(131,59,o),
(130,66,o),
(130,73,cs),
(130,102,o),
(186,107,o),
(210,107,cs),
(248,107,o),
(285,102,o),
(285,82,cs),
(285,66,o),
(253,55,o),
(205,52,cs),
(187,51,o),
(163,50,o),
(133,50,c)
);
}
);
width = 364;
}
);
note = p;
unicode = 112;
},
{
glyphname = q;
lastChange = "2026-04-08 16:57:58 +0000";
layers = (
{
anchors = (
{
name = bottom;
pos = (181,0);
},
{
name = top;
pos = (181,357);
}
);
hints = (
{
horizontal = 1;
place = (-111, 45);
place = (-111, 45);
type = Stem;
},
{
horizontal = 1;
place = (5, 46.08);
place = (5, 46.08);
type = Stem;
},
{
horizontal = 1;
place = (102.19, 42.81);
place = (102.19, 42.81);
type = Stem;
},
{
place = (242, 45.44);
place = (242, 45.44);
type = Stem;
},
{
place = (255, 39);
place = (255, 39);
type = Stem;
}
);
layerId = m01;
shapes = (
{
closed = 1;
nodes = (
(273,-176,o),
(273,-126,o),
(273,-112,c),
(334,-105,o),
(329,-66,o),
(271,-66,c),
(275,-23,o),
(278,20,o),
(281,65,c),
(297,60,o),
(300,56,o),
(309,56,cs),
(325,56,o),
(339,78,o),
(313,97,cs),
(303,105,o),
(292,113,o),
(280,122,c),
(280,147,o),
(280,172,o),
(280,197,c),
(266,224,o),
(237,213,o),
(237,194,c),
(238,174,o),
(240,153,o),
(241,133,c),
(208,140,o),
(180,145,o),
(146,145,cs),
(116,145,o),
(88,139,o),
(63,123,cs),
(27,101,o),
(23,63,o),
(55,35,cs),
(76,16,o),
(140,7,o),
(168,5,c),
(216,4,o),
(180,5,o),
(228,5,c),
(228,-66,l),
(211,-66,o),
(198,-66,o),
(185,-67,cs),
(151,-67,o),
(149,-106,o),
(185,-109,cs),
(199,-109,o),
(213,-110,o),
(228,-111,c),
(228,-181,ls),
(228,-211,o),
(268,-207,o),
(272,-183,cs)
);
},
{
closed = 1;
nodes = (
(208,48,o),
(182,51,o),
(169,51,cs),
(137,51,o),
(75,53,o),
(76,77,cs),
(77,95,o),
(126,102,o),
(152,102,cs),
(176,102,o),
(232,109,o),
(232,71,cs),
(232,65,o),
(231,57,o),
(230,48,c)
);
}
);
width = 375;
}
);
note = q;
unicode = 113;
},
{
glyphname = r;
lastChange = "2026-04-08 18:00:45 +0000";
layers = (
{
anchors = (
{
name = bottom;
pos = (152,0);
},
{
name = top;
pos = (152,149);
}
);
hints = (
{
horizontal = 1;
place = (90.13, 44.01);
place = (90.13, 44.01);
type = Stem;
},
{
place = (61, 38);
place = (61, 38);
type = Stem;
}
);
layerId = m01;
shapes = (
{
closed = 1;
nodes = (
(109,89,cs),
(105,104,o),
(105,117,o),
(99,127,c),
(86,162,o),
(54,136,o),
(63,99,cs),
(81,24,l),
(93,-11,o),
(122,-5,o),
(129,26,cs),
(139.5,66.5,o),
(169.13,90.13,o),
(204.38,90.13,cs),
(216.13,90.13,o),
(228.51,87.51,o),
(256.01,77.01,c),
(290,79,o),
(296,108,o),
(273.01,116.01,cs),
(251.01,125.01,o),
(227.01,133.01,o),
(204.01,134.01,cs),
(167,136,o),
(136,116,o)
);
}
);
width = 303;
}
);
note = r;
unicode = 114;
},
{
glyphname = s;
lastChange = "2026-04-08 16:44:54 +0000";
layers = (
{
anchors = (
{
name = bottom;
pos = (150,2);
},
{
name = top;
pos = (150,192);
}
);
hints = (
{
horizontal = 1;
place = (1.86, 47.82);
place = (1.86, 47.82);
type = Stem;
},
{
horizontal = 1;
place = (159.63, 35.66);
place = (159.63, 35.66);
type = Stem;
},
{
place = (46.03, 57.75);
place = (46.03, 57.75);
type = Stem;
}
);
layerId = m01;
shapes = (
{
closed = 1;
nodes = (
(171,-8,o),
(203,-3,o),
(234,8,cs),
(258,18,o),
(271,32,o),
(271,46,cs),
(271,74,o),
(217,91,o),
(186,98,cs),
(159,102,o),
(131,105,o),
(103,108,c),
(105,141,o),
(145,137,o),
(160,137,c),
(182,134,o),
(209,127,o),
(231,115,cs),
(249,104,o),
(269,123,o),
(252,144,cs),
(246,151,o),
(180,170,o),
(155,170,c),
(105,170,o),
(46,149,o),
(46,117,cs),
(46,91,o),
(84,82,o),
(113,76,cs),
(142,70,o),
(171,66,o),
(199,61,cs),
(217,59,o),
(224,44,o),
(198,41,cs),
(176,36,o),
(153,34,o),
(130,34,cs),
(111,34,o),
(92,36,o),
(73,42,cs),
(37,53,o),
(23,15,o),
(57,4,cs),
(84,-5,o),
(111,-8,o),
(138,-8,cs)
);
}
);
width = 300;
}
);
note = s;
unicode = 115;
},
{
glyphname = t;
lastChange = "2026-04-08 16:38:13 +0000";
layers = (
{
anchors = (
{
name = bottom;
pos = (150,0);
},
{
name = center;
pos = (150,179);
},
{
name = top;
pos = (150,357);
},
{
name = topright;
pos = (279,546);
}
);
hints = (
{
horizontal = 1;
place = (-0.33, 46.33);
place = (-0.33, 46.33);
type = Stem;
},
{
horizontal = 1;
place = (129, 43);
place = (129, 43);
type = Stem;
},
{
place = (115.56, 45.44);
place = (115.56, 45.44);
type = Stem;
},
{
horizontal = 1;
place = (118, 42);
place = (118, 42);
type = Stem;
},
{
place = (128, 42.26);
place = (128, 42.26);
type = Stem;
}
);
layerId = m01;
shapes = (
{
closed = 1;
nodes = (
(192,-1,o),
(211,0,o),
(211.17,23.43,cs),
(211,46,o),
(194,40,o),
(172,49,c),
(169,72,o),
(165,97,o),
(161,129,c),
(211.81,128.83,l),
(246,129,o),
(242,171,o),
(208,171,cs),
(193,172,o),
(178,172,o),
(162,172,c),
(162,369,o),
(170,318,o),
(170.26,515.91,cs),
(170,551,o),
(128,554,o),
(128,511,cs),
(124,422,o),
(116,183.33,o),
(116,166,c),
(102,164,o),
(92,163,o),
(82,160,cs),
(55,152,o),
(58,110,o),
(93,118,cs),
(100,120,o),
(108,121,o),
(115,123,c),
(119,93,o),
(122,65,o),
(128,39,cs),
(134,12,o),
(149,1,o),
(174,0,cs)
);
}
);
width = 299;
}
);
note = t;
unicode = 116;
},
{
glyphname = u;
lastChange = "2026-04-08 16:41:32 +0000";
layers = (
{
anchors = (
{
name = bottom;
pos = (162,0);
},
{
name = ogonek;
pos = (283,10);
},
{
name = top;
pos = (148,143);
},
{
name = topright;
pos = (293,357);
}
);
hints = (
{
horizontal = 1;
place = (-0.96, 43.6);
place = (-0.96, 43.6);
type = Stem;
},
{
horizontal = 1;
place = (129.79, -20);
target = down;
type = TopGhost;
},
{
place = (11.25, 41.75);
place = (11.25, 41.75);
type = Stem;
}
);
layerId = m01;
shapes = (
{
closed = 1;
nodes = (
(206,-2,o),
(228,39,o),
(254,62,c),
(258,43,o),
(261,32,o),
(264,14,cs),
(272,-18,o),
(310,-12,o),
(305,22,cs),
(303,50,o),
(301,70,o),
(297,97,cs),
(291,131,o),
(278,148,o),
(243,116,cs),
(224,98,o),
(179,43,o),
(138,43,cs),
(106,42,o),
(75,91,o),
(63,112,cs),
(46,146,o),
(21,124,o),
(21,111,cs),
(21,98,o),
(75,0,o),
(140,-1,cs)
);
}
);
width = 323;
}
);
note = u;
unicode = 117;
},
{
glyphname = v;
lastChange = "2026-04-08 16:08:07 +0000";
layers = (
{
anchors = (
{
name = bottom;
pos = (127,-4);
},
{
name = top;
pos = (124,155);
}
);
hints = (
{
horizontal = 1;
place = (-0.92, 145.92);
place = (-0.92, 145.92);
type = Stem;
},
{
place = (8, 272);
place = (8, 272);
type = Stem;
}
);
layerId = m01;
shapes = (
{
closed = 1;
nodes = (
(193,45,o),
(233,76,o),
(272,107,cs),
(289,122,o),
(280,160,o),
(251,145,cs),
(209,121,o),
(159,70,o),
(124,41,c),
(89,81,o),
(68,102,o),
(42,131,cs),
(21,155,o),
(5,140,o),
(8,108,cs),
(10,100,o),
(63,42,o),
(85,20,cs),
(113,-10,o),
(127,-4,o),
(153,15,cs)
);
}
);
width = 288;
}
);
note = v;
unicode = 118;
},
{
glyphname = w;
lastChange = "2026-04-08 17:15:50 +0000";
layers = (
{
anchors = (
{
name = bottom;
pos = (212,0);
},
{
name = top;
pos = (212,157);
}
);
hints = (
{
horizontal = 1;
place = (-11.51, 133.3);
place = (-11.51, 133.3);
type = Stem;
}
);
layerId = m01;
shapes = (
{
closed = 1;
nodes = (
(292,-16,o),
(306,-15,o),
(325,1,cs),
(343,17,o),
(400,72,o),
(407,84,cs),
(419,105,o),
(402,121,o),
(379,115,cs),
(371,113,o),
(320,58,o),
(299,35,c),
(274,59,o),
(250,78,o),
(230,101,cs),
(207,126,o),
(195,129,o),
(169,107,cs),
(147,88,o),
(125,68,o),
(103,48,c),
(84,62,o),
(70,86,o),
(52,106,cs),
(31,129,o),
(-3,108,o),
(20,79,cs),
(36,59,o),
(52,39,o),
(69,19,cs),
(90,-4,o),
(108,-4,o),
(132,16,cs),
(153,33,o),
(173,51,o),
(193,69,c),
(221,44,o),
(246,21,o),
(272,0,cs)
);
}
);
width = 433;
}
);
note = w;
unicode = 119;
},
{
glyphname = x;
lastChange = "2026-04-08 16:09:04 +0000";
layers = (
{
anchors = (
{
name = bottom;
pos = (179,0);
},
{
name = top;
pos = (179,357);
}
);
hints = (
{
horizontal = 1;
place = (-5.65, 42.65);
place = (-5.65, 42.65);
type = Stem;
},
{
place = (20, 317);
place = (20, 317);
type = Stem;
}
);
layerId = m01;
shapes = (
{
closed = 1;
nodes = (
(56,-2,o),
(142,35,o),
(179,51,c),
(235,23,o),
(259,10,o),
(284,1,cs),
(302,-6,o),
(336,20,o),
(304,39,cs),
(283,51,o),
(253,63,o),
(231,74,c),
(258,86,o),
(295,101,o),
(322,111,cs),
(351,122,o),
(341,155,o),
(308,150,cs),
(301,148,o),
(217,115,o),
(179,100,c),
(167,106,o),
(103,138,o),
(81,148,cs),
(59,158,o),
(44,138,o),
(62,113,cs),
(66,107,o),
(110,87,o),
(127,78,c),
(114,73,o),
(54,47,o),
(33,37,cs),
(5,25,o),
(19,-13,o),
(50,-4,cs)
);
}
);
width = 357;
}
);
note = x;
unicode = 120;
},
{
glyphname = y;
lastChange = "2026-04-08 16:48:06 +0000";
layers = (
{
anchors = (
{
name = bottom;
pos = (159,0);
},
{
name = top;
pos = (154,166);
}
);
hints = (
{
horizontal = 1;
place = (3.79, 43.93);
place = (3.79, 43.93);
type = Stem;
},
{
horizontal = 1;
place = (146, -20);
target = down;
type = TopGhost;
},
{
place = (12.51, 46.93);
place = (12.51, 46.93);
type = Stem;
},
{
place = (80.82, 43.18);
place = (80.82, 43.18);
type = Stem;
},
{
place = (235, 49.39);
place = (235, 49.39);
type = Stem;
}
);
layerId = m01;
shapes = (
{
closed = 1;
nodes = (
(228,-159,o),
(257,-87,o),
(270,-20,cs),
(277,20,o),
(285,60,o),
(292,100,cs),
(296,120,o),
(299,161,o),
(265,147,cs),
(241,137,o),
(249,48,o),
(149,48,cs),
(108,48,o),
(69,61,o),
(69,122,cs),
(69,155,o),
(23,153,o),
(23,120,cs),
(23,50,o),
(79,4,o),
(149,4,cs),
(176,4,o),
(202,9,o),
(229,11,c),
(219,-36,o),
(209,-114,o),
(167,-114,cs),
(140,-114,o),
(134,-98,o),
(134,-66,cs),
(132,-25,o),
(97,-21,o),
(91,-62,cs),
(88,-90,o),
(89,-159,o),
(160,-159,cs)
);
}
);
width = 317;
}
);
note = y;
unicode = 121;
},
{
glyphname = z;
lastChange = "2026-04-08 16:45:14 +0000";
layers = (
{
anchors = (
{
name = bottom;
pos = (159,0);
},
{
name = center;
pos = (159,179);
},
{
name = top;
pos = (159,177);
}
);
hints = (
{
horizontal = 1;
place = (4, 48);
place = (4, 48);
type = Stem;
},
{
horizontal = 1;
place = (121, 41);
place = (121, 41);
type = Stem;
},
{
place = (20, 259);
place = (20, 259);
type = Stem;
}
);
layerId = m01;
shapes = (
{
closed = 1;
nodes = (
(153,107,l),
(120,86,o),
(87,66,o),
(54,45,cs),
(42,37,o),
(28,31,o),
(28,16,cs),
(28,13,o),
(29,10,o),
(30,7,cs),
(35,-8,o),
(46,-11,o),
(59,-11,cs),
(63,-11,o),
(68,-10,o),
(72,-10,cs),
(74,-10,o),
(76,-9,o),
(79,-9,cs),
(132,-8,o),
(185,-6,o),
(238,-5,cs),
(248,-5,o),
(259,-8,o),
(268,-5,cs),
(277,-2,o),
(289,7,o),
(289,14,cs),
(290,21,o),
(280,34,o),
(272,37,cs),
(256,42,o),
(238,42,o),
(221,43,cs),
(196,43,o),
(148,37,o),
(123,37,c),
(123,39,o),
(121,41,o),
(122,43,cs),
(126,48,o),
(167,74,o),
(178,81,cs),
(207,98,o),
(219,107,o),
(239,122,cs),
(247,128,o),
(257,130,o),
(255,138,cs),
(253,146,o),
(240,155,o),
(230,158,cs),
(226,159,o),
(221,160,o),
(216,160,cs),
(208,160,o),
(200,159,o),
(193,158,cs),
(150,157,o),
(107,155,o),
(64,153,cs),
(55,153,o),
(47,149,o),
(40,148,c),
(39,142,o),
(38,136,o),
(38,132,cs),
(38,117,o),
(45,113,o),
(62,112,c),
(62,112,o),
(92,112,o),
(92,112,c),
(112,112,o),
(132,112,o),
(152,112,c)
);
}
);
width = 318;
}
);
note = z;
unicode = 122;
},
{
glyphname = braceleft;
lastChange = "2026-04-06 10:44:44 +0000";
layers = (
{
hints = (
{
horizontal = 1;
place = (-33.12, 56.12);
place = (-33.12, 56.12);
type = Stem;
},
{
horizontal = 1;
place = (646.77, 65.19);
place = (646.77, 65.19);
type = Stem;
},
{
place = (100.99, 55.29);
place = (100.99, 55.29);
type = Stem;
},
{
place = (145.4, 53.73);
place = (145.4, 53.73);
type = Stem;
}
);
layerId = m01;
shapes = (
{
closed = 1;
nodes = (
(148,221,o),
(168,241,o),
(170,263,cs),
(175,320,o),
(174,371,o),
(168,428,cs),
(162,484,o),
(135,548,o),
(135,601,cs),
(135,654,o),
(173,649,o),
(210,643,cs),
(268,633,o),
(270,677,o),
(245,692,cs),
(174,739,o),
(80,699,o),
(80,607,cs),
(80,606,ls),
(82,552,o),
(99,498,o),
(107,443,cs),
(115,372,o),
(144,278,o),
(83,237,cs),
(58,220,o),
(52,207,o),
(72,185,cs),
(99,155,o),
(124,129,o),
(124,82,cs),
(124,-54,o),
(214,-40,o),
(266,-26,cs),
(326,-8,o),
(293,42,o),
(251,28,cs),
(194,16,o),
(178,19,o),
(178,97,cs),
(178,137,o),
(172,173,o),
(135,197,c)
);
}
);
width = 379;
}
);
note = braceleft;
unicode = 123;
},
{
glyphname = bar;
lastChange = "2026-04-06 09:28:42 +0000";
layers = (
{
hints = (
{
place = (117, 56);
place = (117, 56);
type = Stem;
}
);
layerId = m01;
shapes = (
{
closed = 1;
nodes = (
(175,703,o),
(171,709,cs),
(147,745,o),
(119,731,o),
(119,682,cs),
(118,515,o),
(119,-16,o),
(125,-64,cs),
(129,-111,o),
(183,-106,o),
(183,-48,cs),
(179,57,o)
);
}
);
width = 300;
}
);
note = bar;
unicode = 124;
},
{
glyphname = braceright;
lastChange = "2026-04-06 10:44:55 +0000";
layers = (
{
hints = (
{
horizontal = 1;
place = (-34.71, 59.84);
place = (-34.71, 59.84);
type = Stem;
},
{
horizontal = 1;
place = (646.07, 53.02);
place = (646.07, 53.02);
type = Stem;
},
{
place = (164.11, 55.8);
place = (164.11, 55.8);
type = Stem;
},
{
place = (180.2, 60.68);
place = (180.2, 60.68);
type = Stem;
},
{
place = (156.75, 58.74);
place = (156.75, 58.74);
type = Stem;
},
{
place = (191, 54.09);
place = (191, 54.09);
type = Stem;
}
);
layerId = m01;
shapes = (
{
closed = 1;
nodes = (
(222,165,o),
(211,143,o),
(211,120,cs),
(211,96,o),
(232,48,o),
(218,34,cs),
(213,27,o),
(159,28,o),
(153,28,cs),
(111,28,o),
(127,-35,o),
(201,-35,cs),
(256,-35,o),
(283,12,o),
(283,49,cs),
(283,102,o),
(237,121,o),
(283,147,cs),
(330,173,o),
(329,184,o),
(293,224,cs),
(270,250,o),
(257,279,o),
(257,312,cs),
(257,318,o),
(287,551,o),
(287,614,cs),
(287,719,o),
(134,716,o),
(103,679,cs),
(76,647,o),
(69,640,o),
(102,615,c),
(179,658,o),
(233,643,o),
(233,595,cs),
(231,503,o),
(199,379,o),
(199,311,cs),
(199,269,o),
(213,229,o),
(248,191,c)
);
}
);
width = 379;
}
);
note = braceright;
unicode = 125;
},
{
glyphname = asciitilde;
lastChange = "2026-03-25 12:58:26 +0000";
layers = (
{
hints = (
{
horizontal = 1;
place = (605.95, 57.59);
place = (605.95, 57.59);
type = Stem;
}
);
layerId = m01;
shapes = (
{
closed = 1;
nodes = (
(87,716,o),
(39,691,o),
(17,659,cs),
(-17,615,o),
(20,563,o),
(49,603,cs),
(71,638,o),
(90,654,o),
(114,654,cs),
(174,654,o),
(206,606,o),
(266,606,cs),
(308,606,o),
(344,628,o),
(381,675,cs),
(417,725,o),
(383,765,o),
(336,713,cs),
(307,679,o),
(288,664,o),
(263,664,cs),
(245,664,o),
(152,716,o),
(128,716,cs)
);
}
);
width = 400;
}
);
note = asciitilde;
unicode = 126;
},
{
glyphname = quoteleft;
lastChange = "2026-04-06 10:22:44 +0000";
layers = (
{
hints = (
{
horizontal = 1;
place = (536, 249);
place = (536, 249);
type = Stem;
},
{
place = (87, 203.03);
place = (87, 203.03);
type = Stem;
}
);
layerId = m01;
shapes = (
{
closed = 1;
nodes = (
(4,749,o),
(41,522,o),
(123,583,c),
(167,622,o),
(105,648,o),
(104,658,cs),
(101,672,o),
(133,699,o),
(143,733,c)
);
},
{
closed = 1;
nodes = (
(104,737,o),
(178,517,o),
(252,588,c),
(289,636,o),
(226,650,o),
(224,660,cs),
(220,673,o),
(238,703,o),
(244,738,c)
);
}
);
width = 344;
}
);
note = quoteleft;
unicode = 8216;
},
{
glyphname = quoteright;
lastChange = "2026-04-06 08:56:33 +0000";
layers = (
{
hints = (
{
horizontal = 1;
place = (534, 249);
place = (534, 249);
type = Stem;
},
{
place = (105, 203.04);
place = (105, 203.04);
type = Stem;
}
);
layerId = m01;
shapes = (
{
closed = 1;
nodes = (
(189,531,o),
(152,758,o),
(70,697,c),
(27,653,o),
(88,632,o),
(89,622,cs),
(92,608,o),
(60,581,o),
(50,547,c)
);
}
);
width = 193;
}
);
note = quoteright;
unicode = 8217;
},
{
glyphname = euro;
lastChange = "2026-04-06 10:50:41 +0000";
layers = (
{
hints = (
{
horizontal = 1;
place = (14.57, 73.57);
place = (14.57, 73.57);
type = Stem;
},
{
horizontal = 1;
place = (210.45, 60.2);
place = (210.45, 60.2);
type = Stem;
},
{
horizontal = 1;
place = (358.75, 62.41);
place = (358.75, 62.41);
type = Stem;
},
{
horizontal = 1;
place = (700.99, 62.13);
place = (700.99, 62.13);
type = Stem;
},
{
place = (124, 58.32);
place = (124, 58.32);
type = Stem;
},
{
place = (312, 58.05);
place = (312, 58.05);
type = Stem;
}
);
layerId = m01;
shapes = (
{
closed = 1;
nodes = (
(210,324,o),
(191,359,o),
(258,359,cs),
(276,359,o),
(310,350,o),
(313,391,cs),
(315,413,o),
(294,421,o),
(274,421,cs),
(248,421,o),
(229,418,o),
(207,417,c),
(217,536,o),
(224,571,o),
(254,683,cs),
(270,730,o),
(317,695,o),
(317,663,cs),
(317,642,o),
(366,626,o),
(366,675,cs),
(366,676,ls),
(366,715,o),
(325,755,o),
(284,762,cs),
(243,772,o),
(204,731,o),
(193,688,cs),
(175,620,o),
(164,552,o),
(154,483,cs),
(145,421,o),
(148,420,o),
(83,416,cs),
(29,413,o),
(50,366,o),
(83,356,cs),
(104,350,o),
(121,355,o),
(143,355,c),
(143,270,l),
(119,270,o),
(114,273,o),
(89,269,cs),
(46,259,o),
(68,210,o),
(112,210,c),
(145,210,o),
(155,198,o),
(159,172,cs),
(169,102,o),
(200,15,o),
(279,15,cs),
(338,15,o),
(389,82,o),
(389,151,cs),
(389,152,ls),
(389,174,o),
(356,233,o),
(331,159,cs),
(318,122,o),
(313,88,o),
(272,88,cs),
(243,88,o),
(222,165,o),
(204,209,c),
(229,209,o),
(265,204,o),
(291,210,cs),
(337,219,o),
(354,271,o),
(265,271,cs),
(210,271,l)
);
}
);
width = 449;
}
);
note = euro;
unicode = 8364;
},
{
glyphname = exclamdown;
lastChange = "2026-04-06 11:08:57 +0000";
layers = (
{
hints = (
{
horizontal = 1;
place = (636.92, 82.31);
place = (636.92, 82.31);
type = Stem;
},
{
place = (42, 55);
place = (42, 55);
type = Stem;
},
{
place = (47, 47);
place = (47, 47);
type = Stem;
},
{
place = (32.3, 76.99);
place = (32.3, 76.99);
type = Stem;
},
{
place = (32.3, 69.7);
place = (32.3, 69.7);
type = Stem;
}
);
layerId = m01;
shapes = (
{
closed = 1;
nodes = (
(137,584,o),
(129,527,cs),
(121,431,o),
(125,76,o),
(127,-22,cs),
(131,-61,o),
(174,-59,o),
(174,-24,cs),
(174,286,o),
(172,115,o),
(177,522,cs),
(178,580,o)
);
},
{
closed = 1;
nodes = (
(179,611,o),
(198,623,o),
(198,647,cs),
(198,662,o),
(202,696,o),
(153,696,cs),
(99,696,o),
(96,611,o),
(140,611,cs)
);
}
);
width = 298;
}
);
note = exclamdown;
unicode = 161;
},
{
glyphname = cent;
lastChange = "2026-04-08 18:16:08 +0000";
layers = (
{
hints = (
{
horizontal = 1;
place = (14.57, 73.57);
place = (14.57, 73.57);
type = Stem;
},
{
horizontal = 1;
place = (210.45, 60.2);
place = (210.45, 60.2);
type = Stem;
},
{
horizontal = 1;
place = (358.75, 62.41);
place = (358.75, 62.41);
type = Stem;
},
{
horizontal = 1;
place = (700.99, 62.13);
place = (700.99, 62.13);
type = Stem;
},
{
place = (124, 58.32);
place = (124, 58.32);
type = Stem;
}
);
layerId = m01;
shapes = (
{
closed = 1;
nodes = (
(109,117,o),
(86,132,o),
(86,136,cs),
(86,164,o),
(149,180,o),
(172,183,cs),
(200,187,o),
(229,184,o),
(255,179,cs),
(285,172,o),
(306,208,o),
(263,220,c),
(188,226,o),
(169,224,o),
(149,220,cs),
(98,210,o),
(30,172,o),
(30,128,cs),
(30,92,o),
(81,73,o),
(149,73,cs),
(183,73,o),
(217,73,o),
(252,74,cs),
(306,74,o),
(283,120,o),
(245,120,cs),
(213,119,o),
(181,117,o),
(150,117,cs)
);
},
{
closed = 1;
nodes = (
(203,413,o),
(199,419,cs),
(175,455,o),
(149,441,o),
(149,392,cs),
(148,225,o),
(149,-6,o),
(155,-54,cs),
(159,-101,o),
(200,-96,o),
(200,-38,cs),
(196,67,o)
);
}
);
width = 317;
}
);
note = cent;
unicode = 162;
},
{
glyphname = sterling;
lastChange = "2026-04-06 10:50:50 +0000";
layers = (
{
hints = (
{
horizontal = 1;
place = (-33, 88);
place = (-33, 88);
type = Stem;
},
{
horizontal = 1;
place = (165.69, 56.31);
place = (165.69, 56.31);
type = Stem;
},
{
horizontal = 1;
place = (710.81, 56.84);
place = (710.81, 56.84);
type = Stem;
},
{
place = (95.25, 55.75);
place = (95.25, 55.75);
type = Stem;
},
{
place = (228, 50.39);
place = (228, 50.39);
type = Stem;
},
{
horizontal = 1;
place = (-20.95, 60.09);
place = (-20.95, 60.09);
type = Stem;
}
);
layerId = m01;
shapes = (
{
closed = 1;
nodes = (
(157,188,o),
(146,81,o),
(94,85,cs),
(77,86,o),
(16,-3,o),
(118,-3,cs),
(139,-3,o),
(150,32,o),
(177,32,cs),
(201,32,o),
(283,-1,o),
(385,22,cs),
(427,31,o),
(432,94,o),
(369,77,cs),
(317,63,o),
(190,76,o),
(190,103,cs),
(191,137,o),
(194,141,o),
(197,178,c),
(238,174,o),
(277,170,o),
(316,166,c),
(326,166,ls),
(341,166,o),
(358,169,o),
(358,189,cs),
(358,194,ls),
(358,215,o),
(341,220,o),
(323,222,cs),
(281,226,o),
(239,229,o),
(187,234,c),
(187,341,o),
(177,586,o),
(200,690,cs),
(205,714,o),
(222,719,o),
(236,698,cs),
(249,678,o),
(254,653,o),
(267,633,cs),
(291,592,o),
(317,610,o),
(317,644,c),
(301,697,o),
(275,768,o),
(219,768,cs),
(181,768,o),
(158,741,o),
(145,706,cs),
(126,655,o),
(130,293,o),
(130,239,c),
(65,230,o),
(85,171,o),
(125,171,c)
);
}
);
width = 466;
}
);
note = sterling;
unicode = 163;
},
{
glyphname = copyright;
lastChange = "2026-04-08 17:58:09 +0000";
layers = (
{
hints = (
{
horizontal = 1;
place = (230, 55);
place = (230, 55);
type = Stem;
},
{
horizontal = 1;
place = (466, 57);
place = (466, 57);
type = Stem;
},
{
place = (26, 59);
place = (26, 59);
type = Stem;
},
{
place = (666, 60);
place = (666, 60);
type = Stem;
},
{
horizontal = 1;
place = (112, 52);
place = (112, 52);
type = Stem;
},
{
horizontal = 1;
place = (122, 52);
place = (122, 52);
type = Stem;
}
);
layerId = m01;
shapes = (
{
closed = 1;
nodes = (
(477,-39,o),
(624,22,o),
(624,172,c),
(624,315,o),
(469,431,o),
(307,431,cs),
(207,431,o),
(40,295,o),
(40,153,c),
(40,0,o),
(207,-39,o),
(329,-39,c)
);
},
{
closed = 1;
nodes = (
(317,75,o),
(363,80,o),
(409,84,c),
(432,88,o),
(427,130,o),
(401,130,c),
(369,129,o),
(338,121,o),
(306,121,c),
(281,121,o),
(237,104,o),
(237,129,cs),
(237,182,o),
(322,191,o),
(371,170,c),
(409,158,o),
(416,188,o),
(396,210,c),
(368,240,o),
(272,224,o),
(231,197,c),
(202,177,o),
(192,155,o),
(192,135,c),
(192,103,o),
(221,75,o),
(251,75,c)
);
},
{
closed = 1;
nodes = (
(237,8,o),
(86,33,o),
(86,151,c),
(86,247,o),
(215,386,o),
(309,386,c),
(394,386,o),
(577,307,o),
(577,172,c),
(577,51,o),
(448,8,o),
(332,8,c)
);
}
);
width = 669;
}
);
note = copyright;
unicode = 169;
},
{
glyphname = registered;
lastChange = "2026-04-08 13:51:52 +0000";
layers = (
{
hints = (
{
horizontal = 1;
place = (146, 56);
place = (146, 56);
type = Stem;
},
{
horizontal = 1;
place = (341.14, 62.87);
place = (341.14, 62.87);
type = Stem;
},
{
place = (19, 59);
place = (19, 59);
type = Stem;
},
{
place = (673, 59);
place = (673, 59);
type = Stem;
}
);
layerId = m01;
shapes = (
{
closed = 1;
nodes = (
(285,368,o),
(334,374,o),
(381,386,cs),
(434,399,o),
(488,416,o),
(531,454,cs),
(563,483,o),
(579,517,o),
(579,551,cs),
(579,586,o),
(561,621,o),
(525,647,cs),
(494,670,o),
(456,686,o),
(420,701,cs),
(387,716,o),
(357,723,o),
(328,723,cs),
(276,723,o),
(225,701,o),
(166,667,cs),
(119,640,o),
(83,601,o),
(61,549,cs),
(54,532,o),
(50,515,o),
(50,499,cs),
(50,467,o),
(64,437,o),
(91,413,cs),
(132,376,o),
(183,364,o),
(259,364,c)
);
},
{
closed = 1;
nodes = (
(233,408,ls),
(196,408,o),
(161,415,o),
(130,438,cs),
(106,455,o),
(94,475,o),
(94,499,cs),
(94,511,o),
(98,523,o),
(103,537,cs),
(127,587,o),
(167,623,o),
(215,647,cs),
(256,667,o),
(294,676,o),
(331,676,cs),
(389,676,o),
(442,654,o),
(489,621,cs),
(520,599,o),
(535,573,o),
(535,548,cs),
(535,522,o),
(519,496,o),
(486,475,cs),
(430,439,o),
(367,425,o),
(303,414,cs),
(282,411,o),
(260,410,o),
(239,408,cs)
);
},
{
closed = 1;
nodes = (
(249,517,o),
(246,529,o),
(242,540,cs),
(239,552,o),
(236,566,o),
(222,566,cs),
(220,566,o),
(218,566,o),
(216,565,cs),
(204,561,o),
(201,554,o),
(201,545,cs),
(201,540,o),
(202,534,o),
(204,529,cs),
(210,503,o),
(216,477,o),
(225,453,cs),
(229,443,o),
(239,432,o),
(248,431,cs),
(250,431,ls),
(256,431,o),
(267,442,o),
(271,450,cs),
(285,479,o),
(306,502,o),
(337,511,cs),
(367,521,o),
(400,524,o),
(432,532,cs),
(442,534,o),
(450,543,o),
(459,549,c),
(452,557,o),
(447,570,o),
(438,573,cs),
(432,575,o),
(425,576,o),
(417,576,cs),
(411,576,o),
(403,575,o),
(397,574,cs),
(343,564,o),
(293,549,o),
(254,501,c)
);
}
);
width = 649;
}
);
note = registered;
unicode = 174;
},
{
glyphname = degree;
lastChange = "2026-04-08 14:00:36 +0000";
layers = (
{
hints = (
{
horizontal = 1;
place = (635.89, 59.87);
place = (635.89, 59.87);
type = Stem;
},
{
place = (43.87, 213.23);
place = (43.87, 213.23);
type = Stem;
}
);
layerId = m01;
shapes = (
{
closed = 1;
nodes = (
(188,525,o),
(247,561,o),
(247,595,cs),
(247,648,o),
(175,676,o),
(122,676,cs),
(73,676,o),
(34,641,o),
(34,598,cs),
(34,556,o),
(112,525,o),
(154,525,cs)
);
},
{
closed = 1;
nodes = (
(79,661,o),
(205,628,o),
(205,597,cs),
(205,542,o),
(79,568,o),
(79,600,cs)
);
}
);
width = 275;
}
);
note = degree;
unicode = 176;
},
{
glyphname = ordmasculine;
lastChange = "2026-04-08 17:39:07 +0000";
layers = (
{
hints = (
{
horizontal = 1;
place = (635.89, 59.87);
place = (635.89, 59.87);
type = Stem;
},
{
place = (39.87, 213.23);
place = (39.87, 213.23);
type = Stem;
},
{
horizontal = 1;
place = (-1.58, 45.58);
place = (-1.58, 45.58);
type = Stem;
},
{
horizontal = 1;
place = (121, 46);
place = (121, 46);
type = Stem;
},
{
place = (9, 278);
place = (9, 278);
type = Stem;
}
);
layerId = m01;
shapes = (
{
closed = 1;
nodes = (
(188,525,o),
(247,561,o),
(247,595,cs),
(247,648,o),
(175,676,o),
(122,676,cs),
(73,676,o),
(34,641,o),
(34,598,cs),
(34,556,o),
(112,525,o),
(154,525,cs)
);
},
{
closed = 1;
nodes = (
(79,661,o),
(205,628,o),
(205,597,cs),
(205,542,o),
(79,568,o),
(79,600,cs)
);
}
);
width = 266;
}
);
note = ordmasculine;
unicode = 186;
},
{
glyphname = questiondown;
lastChange = "2026-04-06 11:08:05 +0000";
layers = (
{
hints = (
{
horizontal = 1;
place = (13.3, 45.68);
place = (13.3, 45.68);
type = Stem;
},
{
place = (50.26, 49.95);
place = (50.26, 49.95);
type = Stem;
},
{
place = (243.37, 48.99);
place = (243.37, 48.99);
type = Stem;
},
{
horizontal = 1;
place = (645, 70);
place = (645, 70);
type = Stem;
},
{
place = (222.96, 84.01);
place = (222.96, 84.01);
type = Stem;
},
{
horizontal = 1;
place = (636.5, 78.5);
place = (636.5, 78.5);
type = Stem;
}
);
layerId = m01;
shapes = (
{
closed = 1;
nodes = (
(377,63,o),
(348,93,o),
(327,55,cs),
(299,4,o),
(281,1,o),
(231,1,cs),
(155,9,o),
(131,98,o),
(131,131,cs),
(131,216,o),
(176,272,o),
(260,400,cs),
(297,456,o),
(336,489,o),
(310,544,cs),
(306,553,o),
(296,571,o),
(272,571,cs),
(237,571,o),
(272,513,o),
(266,492,c),
(196,409,o),
(80,299,o),
(80,127,cs),
(80,61,o),
(131,-52,o),
(238,-52,cs),
(300,-52,o),
(341,-18,o),
(364,30,cs)
);
},
{
closed = 1;
nodes = (
(240,706,o),
(220,694,o),
(221,669,cs),
(224,653,o),
(217,617,o),
(267,617,cs),
(309,617,o),
(313,636,o),
(313,678,cs),
(312,694,o),
(298,706,o),
(280,706,cs)
);
}
);
width = 437;
}
);
note = questiondown;
unicode = 191;
},
{
glyphname = AE;
lastChange = "2026-03-26 15:45:27 +0000";
layers = (
{
layerId = m01;
shapes = (
{
attr = {
fillColor = (0,255);
};
closed = 1;
nodes = (
(419,-10,o),
(443,-8,o),
(467,-6,c),
(526,-2,o),
(527,25,o),
(470,40,c),
(450,47,o),
(429,39,o),
(407,42,c),
(359,51,o),
(341,84,o),
(359,131,c),
(364,145,o),
(370,150,o),
(386,150,c),
(419,149,o),
(452,149,o),
(485,150,c),
(512,150,o),
(507,182,o),
(491,185,c),
(465,192,o),
(439,187,o),
(412,190,c),
(367,194,o),
(353,205,o),
(353,251,c),
(353,336,o),
(358,566,o),
(358,634,c),
(359,658,o),
(371,669,o),
(394,671,c),
(415,672,o),
(438,671,o),
(459,673,c),
(494,677,o),
(524,709,o),
(490,718,c),
(450,721,o),
(410,718,o),
(369,722,c),
(249,734,o),
(211,623,o),
(182,554,c),
(113,390,o),
(92,215,o),
(76,41,c),
(72,13,o),
(103,-18,o),
(115,17,c),
(122,43,o),
(121,69,o),
(126,96,c),
(134,129,o),
(142,138,o),
(176,139,c),
(199,140,o),
(224,140,o),
(249,139,c),
(293,137,o),
(296,133,o),
(301,88,c),
(308,19,o),
(324,3,o),
(394,-6,c)
);
},
{
attr = {
fillColor = (0,255);
};
closed = 1;
nodes = (
(122,263,o),
(306,734,o),
(306,647,cs),
(306,501,o),
(306,357,o),
(307,212,c),
(307,194,o),
(298,186,o),
(283,186,c),
(240,186,o),
(197,186,o),
(154,186,c)
);
}
);
width = 572;
}
);
unicode = 198;
},
{
glyphname = Eth;
lastChange = "2026-03-26 18:53:44 +0000";
layers = (
{
layerId = m01;
shapes = (
{
attr = {
fillColor = (0,255);
};
closed = 1;
nodes = (
(228,-14,o),
(315,102,o),
(344,174,c),
(390,288,o),
(376,395,o),
(349,510,cs),
(320,632,o),
(197,765,o),
(157,699,c),
(157,210,l),
(105,211,o),
(68,213,o),
(26,213,c),
(-17,213,o),
(0,169,o),
(25,162,c),
(39,157,o),
(124,157,o),
(152,158,c),
(152,122,o),
(146,-7,o),
(171,-9,cs)
);
},
{
attr = {
fillColor = (0,255);
};
closed = 1;
nodes = (
(207,156,l),
(292,163,o),
(264,220,o),
(205,212,c),
(205,295,o),
(210,647,o),
(212,654,c),
(263,628,o),
(293,549,o),
(306,491,cs),
(331,377,o),
(339,267,o),
(287,164,c),
(274,138,o),
(226,93,o),
(207,70,c)
);
}
);
width = 424;
}
);
unicode = 208;
},
{
glyphname = Hbar;
lastChange = "2026-03-26 13:11:01 +0000";
layers = (
{
layerId = m01;
shapes = (
{
attr = {
fillColor = (0,255);
};
closed = 1;
nodes = (
(158,0,o),
(178,0,o),
(189,19,c),
(192,26,o),
(189,92,o),
(190,116,c),
(192,144,o),
(201,154,o),
(228,155,c),
(265,156,o),
(301,156,o),
(338,155,c),
(367,154,o),
(374,147,o),
(375,115,c),
(377,85,o),
(378,56,o),
(380,28,c),
(374,0,o),
(423,-24,o),
(423,31,c),
(423,115,o),
(423,199,o),
(423,282,c),
(423,292,o),
(423,300,o),
(423,307,c),
(439,310,o),
(452,310,o),
(463,315,c),
(488,327,o),
(485,349,o),
(457,360,c),
(447,363,o),
(435,360,o),
(424,360,c),
(424,459,o),
(431,682,o),
(428,698,c),
(425,712,o),
(396,711,o),
(393,697,c),
(376,358,l),
(193,364,l),
(193,373,o),
(204,687,o),
(200,701,c),
(198,713,o),
(165,716,o),
(161,702,c),
(154,682,o),
(148,386,o),
(148,363,c),
(75,357,o),
(76,317,o),
(145,309,c),
(145,225,o),
(147,33,o),
(152,19,c)
);
},
{
attr = {
fillColor = (0,255);
};
closed = 1;
nodes = (
(302,200,o),
(259,202,o),
(217,204,c),
(200,205,o),
(192,220,o),
(191,237,c),
(190,259,o),
(191,281,o),
(191,309,c),
(374,309,l),
(374,283,o),
(377,257,o),
(373,232,c),
(371,220,o),
(355,204,o),
(344,203,c)
);
}
);
width = 491;
}
);
unicode = 294;
},
{
glyphname = Lcaron;
lastChange = "2026-04-08 16:59:00 +0000";
layers = (
{
anchors = (
{
name = bottom;
pos = (160,0);
},
{
name = center;
pos = (160,358);
},
{
name = top;
pos = (160,728);
},
{
name = topright;
pos = (290,715);
}
);
hints = (
{
horizontal = 1;
place = (12.45, 48.55);
place = (12.45, 48.55);
type = Stem;
},
{
place = (75, 44);
place = (75, 44);
type = Stem;
},
{
place = (92, 40);
place = (92, 40);
type = Stem;
},
{
horizontal = 1;
place = (12.45, 48.55);
place = (12.45, 48.55);
type = Stem;
},
{
place = (75, 44);
place = (75, 44);
type = Stem;
},
{
place = (92, 40);
place = (92, 40);
type = Stem;
}
);
layerId = m01;
shapes = (
{
closed = 1;
nodes = (
(119,1,o),
(236,5,o),
(236,44,cs),
(236,79,o),
(176,64,o),
(139,70,c),
(139,250,o),
(149,505,o),
(152,669,cs),
(152,742,o),
(105,719,o),
(102,678,cs),
(96,467,o),
(74,37,o),
(94,21,cs)
);
},
{
closed = 1;
nodes = (
(302,590,o),
(311,653,o),
(302,687,cs),
(297,702,o),
(285,716,o),
(271,727,c),
(257,730,o),
(241,722,o),
(230,710,cs),
(223,703,o),
(226,668,o),
(228,660,cs),
(231,650,o),
(253,653,o),
(256,644,cs),
(260,630,o),
(218,579,o),
(222,560,c)
);
}
);
width = 325;
}
);
unicode = 317;
},
{
glyphname = Lslash;
lastChange = "2026-03-26 18:50:11 +0000";
layers = (
{
layerId = m01;
shapes = (
{
attr = {
fillColor = (0,255);
};
closed = 1;
nodes = (
(284,10,o),
(284,94,o),
(144,59,c),
(144,98,o),
(136,127,o),
(146,161,c),
(152,178,o),
(187,188,o),
(209,201,c),
(263,234,o),
(226,291,o),
(146,226,c),
(146,484,o),
(150,471,o),
(154,678,c),
(154,761,o),
(106,747,o),
(102,680,c),
(97,527,o),
(104,375,o),
(100,223,c),
(100,186,o),
(43,201,o),
(16,157,c),
(-16,139,o),
(2,84,o),
(43,110,c),
(59,119,o),
(76,128,o),
(95,139,c),
(95,88,o),
(79,4,o),
(158,10,c)
);
}
);
width = 271;
}
);
unicode = 321;
},
{
glyphname = Eng;
lastChange = "2026-03-26 18:53:13 +0000";
layers = (
{
layerId = m01;
shapes = (
{
attr = {
fillColor = (0,255);
};
closed = 1;
nodes = (
(300,683,o),
(305,709,c),
(311,739,o),
(356,718,o),
(355,677,cs),
(351,440,o),
(342,173,o),
(310,-63,c),
(306,-93,o),
(294,-127,o),
(261,-127,c),
(238,-128,o),
(207,-107,o),
(199,-85,c),
(188,-45,o),
(228,-28,o),
(241,-66,c),
(263,-121,o),
(284,-2,o),
(269,55,c),
(222,233,o),
(110,604,o),
(108,604,c),
(108,595,o),
(113,225,o),
(116,53,c),
(120,-4,o),
(71,-25,o),
(71,48,c),
(67,227,o),
(51,604,o),
(67,694,c),
(73,727,o),
(107,735,o),
(123,707,c),
(170,630,o),
(255,279,o),
(281,183,c),
(284,184,o)
);
}
);
width = 405;
}
);
unicode = 330;
},
{
glyphname = Oslash;
lastChange = "2026-03-26 18:58:53 +0000";
layers = (
{
layerId = m01;
shapes = (
{
closed = 1;
nodes = (
(86,33,o),
(203,433,o),
(258,619,cs),
(290,729,o),
(235,694,o),
(228,673,cs),
(168,478,o),
(35,57,o),
(35,41,cs),
(35,18,o),
(45,-9,o),
(78,24,cs)
);
},
{
closed = 1;
nodes = (
(245,87,o),
(257,292,o),
(257,386,cs),
(257,500,o),
(227,686,o),
(168,699,cs),
(130,708,o),
(86,633,o),
(74,596,cs),
(49,515,o),
(38,432,o),
(38,349,cs),
(38,292,o),
(44,234,o),
(53,176,cs),
(69,77,o),
(106,-55,o),
(206,47,cs)
);
},
{
closed = 1;
nodes = (
(106,56,o),
(87,306,o),
(87,367,cs),
(87,493,o),
(122,645,o),
(164,633,cs),
(203,622,o),
(206,432,o),
(206,331,cs),
(206,238,o),
(198,56,o),
(148,56,cs)
);
}
);
width = 312;
}
);
unicode = 216;
},
{
glyphname = OE;
lastChange = "2026-04-08 18:11:53 +0000";
layers = (
{
layerId = m01;
shapes = (
{
attr = {
fillColor = (0,255);
};
closed = 1;
nodes = (
(201,7,o),
(231,31,o),
(258,48,c),
(285,26,o),
(357,10,o),
(403,18,c),
(438,24,o),
(439,49,o),
(405,59,c),
(317,84,o),
(285,52,o),
(293,148,c),
(297,163,o),
(303,171,o),
(319,169,c),
(348,168,o),
(376,168,o),
(405,169,c),
(425,169,o),
(430,201,o),
(410,205,c),
(386,211,o),
(362,206,o),
(338,208,c),
(301,212,o),
(294,219,o),
(294,258,c),
(293,351,o),
(288,534,o),
(291,627,c),
(292,648,o),
(304,659,o),
(324,662,c),
(343,663,o),
(404,659,o),
(414,674,c),
(431,682,o),
(428,697,o),
(409,700,c),
(370,704,o),
(288,723,o),
(259,688,c),
(229,710,o),
(212,724,o),
(175,719,cs),
(130,713,o),
(112,624,o),
(102,565,cs),
(82,443,o),
(72,315,o),
(86,188,c),
(97,92,o),
(122,1,o),
(175,5,cs)
);
},
{
attr = {
fillColor = (0,255);
};
closed = 1;
nodes = (
(148,67,o),
(143,113,o),
(132,175,c),
(124,281,o),
(124,389,o),
(138,493,cs),
(152,596,o),
(154,647,o),
(184,651,cs),
(214,655,o),
(238,605,o),
(246,488,c),
(249,437,o),
(247,205,o),
(247,139,c),
(247,98,o),
(205,62,o),
(170,65,cs)
);
}
);
width = 475;
}
);
unicode = 338;
},
{
glyphname = Thorn;
lastChange = "2026-04-06 09:15:24 +0000";
layers = (
{
layerId = m01;
shapes = (
{
attr = {
fillColor = (0,255);
};
closed = 1;
nodes = (
(94,-131,o),
(117,-95,o),
(117,-72,c),
(117,-36,o),
(114,-19,o),
(136,11,c),
(267,127,o),
(274,351,o),
(261,488,c),
(253,569,o),
(201,618,o),
(110,632,c),
(110,649,o),
(113,665,o),
(110,681,c),
(100,776,o),
(60,773,o),
(60,696,c),
(61,627,o),
(64,556,o),
(65,486,c),
(69,303,o),
(78,-89,o),
(82,-103,c)
);
},
{
attr = {
fillColor = (0,255);
};
closed = 1;
nodes = (
(119,598,l),
(181,576,o),
(196,529,o),
(205,476,c),
(226,352,o),
(194,154,o),
(119,68,c)
);
}
);
width = 316;
}
);
unicode = 222;
},
{
glyphname = Germandbls;
lastChange = "2026-04-06 09:22:04 +0000";
layers = (
{
layerId = m01;
shapes = (
{
attr = {
fillColor = (0,255);
};
closed = 1;
nodes = (
(299,228,l),
(314,224,o),
(328,221,o),
(340,217,c),
(391,199,o),
(432,157,o),
(428,110,c),
(424,60,o),
(380,17,o),
(328,11,c),
(313,9,o),
(248,10,o),
(234,9,c),
(167,4,o),
(170,48,o),
(236,63,c),
(257,67,o),
(328,68,o),
(349,75,c),
(378,86,o),
(383,114,o),
(362,137,c),
(334,157,o),
(314,173,o),
(284,174,c),
(240,175,o),
(229,193,o),
(242,237,c),
(276,345,o),
(320,472,o),
(354,580,c),
(364,613,o),
(354,627,o),
(326,635,c),
(250,660,o),
(133,680,o),
(122,583,c),
(117,543,o),
(113,444,o),
(113,404,c),
(113,284,o),
(115,164,o),
(116,44,c),
(116,11,o),
(109,-2,o),
(91,-2,c),
(73,-2,o),
(67,10,o),
(66,44,c),
(63,169,o),
(60,293,o),
(59,418,c),
(59,465,o),
(64,571,o),
(74,617,c),
(95,703,o),
(166,717,o),
(253,717,cs),
(313,717,o),
(362,693,o),
(402,653,c),
(413,642,o),
(412,612,o),
(407,592,c),
(379,486,o),
(338,361,o),
(307,255,c),
(304,246,o),
(302,238,o),
(299,228,c)
);
}
);
width = 488;
}
);
unicode = 7838;
},
{
glyphname = ae;
lastChange = "2026-04-08 18:09:32 +0000";
layers = (
{
layerId = m01;
shapes = (
{
attr = {
fillColor = (0,255);
};
closed = 1;
nodes = (
(496,-31,o),
(520,-3,o),
(460,4,c),
(433,7,o),
(379,21,o),
(380,24,c),
(424,26,o),
(469,22,o),
(512,47,c),
(560,75,o),
(558,121,o),
(508,144,c),
(441,174,o),
(366,159,o),
(310,103,c),
(280,162,o),
(251,216,o),
(167,195,c),
(140,189,o),
(144,158,o),
(172,160,c),
(224,163,o),
(243,151,o),
(262,98,c),
(227,114,o),
(194,122,o),
(160,123,cs),
(114,123,o),
(32,105,o),
(29,52,c),
(26,-8,o),
(102,-23,o),
(166,-21,cs),
(217,-18,o),
(265,6,o),
(309,37,c),
(351,-9,o),
(406,-41,o),
(459,-35,c)
);
},
{
attr = {
fillColor = (0,255);
};
closed = 1;
nodes = (
(123,12,o),
(83,23,o),
(68,49,c),
(92,71,o),
(128,82,o),
(161,83,cs),
(199,84,o),
(234,70,o),
(244,43,c),
(224,26,o),
(194,16,o),
(164,15,cs)
);
},
{
attr = {
fillColor = (0,255);
};
closed = 1;
nodes = (
(356,119,o),
(445,138,o),
(505,97,c),
(459,54,o),
(404,59,o),
(349,65,c)
);
}
);
width = 578;
}
);
unicode = 230;
},
{
glyphname = eth;
lastChange = "2026-04-08 16:19:02 +0000";
layers = (
{
layerId = m01;
shapes = (
{
attr = {
fillColor = (0,255);
};
closed = 1;
nodes = (
(236,-1,o),
(320,20,o),
(304,86,c),
(284,207,o),
(282,280,o),
(237,396,c),
(256,405,o),
(273,414,o),
(290,423,c),
(328,442,o),
(305,482,o),
(269,463,c),
(250,454,o),
(233,444,o),
(215,434,c),
(194,455,o),
(172,470,o),
(141,468,c),
(99,465,o),
(97,432,o),
(139,426,c),
(150,425,o),
(161,420,o),
(171,418,c),
(144,399,o),
(118,387,o),
(91,375,c),
(53,356,o),
(69,321,o),
(108,338,c),
(137,350,o),
(166,362,o),
(197,375,c),
(234,301,o),
(246,223,o),
(250,141,c),
(218,159,o),
(188,159,o),
(159,159,cs),
(112,159,o),
(40,143,o),
(31,94,cs),
(19,27,o),
(112,-4,o),
(176,-2,cs)
);
},
{
attr = {
fillColor = (0,255);
};
closed = 1;
nodes = (
(122,41,o),
(113,49,o),
(70,82,c),
(98,106,o),
(135,114,o),
(169,112,cs),
(215,110,o),
(229,106,o),
(257,70,c),
(227,48,o),
(213,42,o),
(176,41,cs)
);
}
);
width = 330;
}
);
unicode = 240;
},
{
glyphname = dcaron;
lastChange = "2026-04-08 16:19:32 +0000";
layers = (
{
anchors = (
{
name = bottom;
pos = (156,0);
},
{
name = center;
pos = (156,179);
},
{
name = top;
pos = (234,561);
},
{
name = topright;
pos = (362,532);
}
);
hints = (
{
horizontal = 1;
place = (1.15, 47.31);
place = (1.15, 47.31);
type = Stem;
},
{
horizontal = 1;
place = (306.18, 46.7);
place = (306.18, 46.7);
type = Stem;
},
{
place = (211, 47);
place = (211, 47);
type = Stem;
},
{
horizontal = 1;
place = (-1.16, 41.42);
place = (-1.16, 41.42);
type = Stem;
},
{
horizontal = 1;
place = (106.01, 46.95);
place = (106.01, 46.95);
type = Stem;
},
{
place = (280, 37);
place = (280, 37);
type = Stem;
},
{
place = (262, 42);
place = (262, 42);
type = Stem;
}
);
layerId = m01;
shapes = (
{
closed = 1;
nodes = (
(232,-1,o),
(269,2,o),
(307,2,c),
(316,184,o),
(306,209,o),
(298,515,cs),
(298,553,o),
(256,552,o),
(256,512,cs),
(259,416,o),
(260,300,o),
(267,137,c),
(247,143,o),
(200,153,o),
(162,153,cs),
(102,153,o),
(30,132,o),
(30,74,cs),
(30,43,o),
(49,26,o),
(80,16,cs),
(118,2,o),
(157,-1,o),
(197,-1,cs)
);
},
{
closed = 1;
nodes = (
(161,40,o),
(75,42,o),
(75,67,cs),
(75,90,o),
(92,106,o),
(164,106,cs),
(199,106,o),
(235,99,o),
(270,88,c),
(271,74,o),
(272,61,o),
(274,42,c),
(251,41,o),
(228,40,o),
(206,40,cs)
);
},
{
closed = 1;
nodes = (
(408,419,o),
(417,482,o),
(408,516,cs),
(403,531,o),
(391,545,o),
(377,556,c),
(363,559,o),
(347,551,o),
(336,539,cs),
(329,532,o),
(332,497,o),
(334,489,cs),
(337,479,o),
(359,482,o),
(362,473,cs),
(366,459,o),
(324,408,o),
(328,389,c)
);
}
);
width = 391;
}
);
unicode = 271;
},
{
glyphname = dcroat;
lastChange = "2026-04-08 16:21:45 +0000";
layers = (
{
layerId = m01;
shapes = (
{
attr = {
fillColor = (0,255);
};
closed = 1;
nodes = (
(310,68,o),
(310,317,o),
(310,382,c),
(324,382,o),
(341,382,o),
(356,381,c),
(396,381,o),
(396,426,o),
(356,429,c),
(339,429,o),
(322,429,o),
(303,429,c),
(303,450,o),
(303,505,o),
(299,526,c),
(297,547,o),
(274,555,o),
(259,526,c),
(256,519,o),
(259,452,o),
(259,427,c),
(225,427,o),
(195,427,o),
(166,426,c),
(126,426,o),
(120,381,o),
(166,381,c),
(195,382,o),
(226,381,o),
(263,381,c),
(263,143,l),
(231,150,o),
(197,154,o),
(162,154,cs),
(134,154,o),
(108,153,o),
(81,143,c),
(23,123,o),
(-1,46,o),
(83,16,c),
(113,6,o),
(144,2,o),
(174,1,cs),
(218,0,o),
(264,4,o),
(310,3,c)
);
},
{
attr = {
fillColor = (0,255);
};
closed = 1;
nodes = (
(276,47,o),
(99,22,o),
(79,70,cs),
(57,122,o),
(210,108,o),
(257,95,c),
(284,86,o),
(282,66,o),
(276,47,cs)
);
}
);
width = 413;
}
);
unicode = 273;
},
{
glyphname = hbar;
lastChange = "2026-04-08 16:25:06 +0000";
layers = (
{
layerId = m01;
shapes = (
{
closed = 1;
nodes = (
(277,-8,o),
(314,-2,o),
(314,20,cs),
(314,25,o),
(296,68,o),
(287,84,cs),
(265,123,o),
(232,148,o),
(186,150,cs),
(155,152,o),
(96,124,o),
(94,125,c),
(103,373,l),
(147,373,o),
(191,375,o),
(236,374,cs),
(284,374,o),
(268,432,o),
(222,430,cs),
(123,425,ls),
(116,425,o),
(110,424,o),
(104,424,c),
(106,479,ls),
(106,544,o),
(64,540,o),
(64,487,cs),
(63,465,o),
(62,444,o),
(62,424,c),
(50,424,o),
(39,424,o),
(25,423,cs),
(-4,420,o),
(-12,375,o),
(31,375,c),
(41,374,o),
(50,374,o),
(60,374,c),
(55,234,o),
(52,133,o),
(50,22,cs),
(48,-15,o),
(93,-23,o),
(96,22,cs),
(100,65,o),
(122,107,o),
(181,107,cs),
(212,108,o),
(256,78,o),
(272,12,cs)
);
}
);
width = 379;
}
);
unicode = 295;
},
{
glyphname = idotless;
lastChange = "2026-04-08 16:55:38 +0000";
layers = (
{
anchors = (
{
name = bottom;
pos = (102,-13);
},
{
name = ogonek;
pos = (166,20);
},
{
name = top;
pos = (119,160);
}
);
layerId = m01;
shapes = (
{
closed = 1;
nodes = (
(170,-20,o),
(208,8,o),
(185,33,cs),
(173,48,o),
(129,130,o),
(113,130,cs),
(93,130,o),
(65,113,o),
(49,102,cs),
(22,83,o),
(41,62,o),
(55,62,cs),
(70,62,o),
(88,81,o),
(101,88,c),
(117,66,o),
(131,26,o),
(147,8,cs)
);
}
);
width = 240;
}
);
unicode = 305;
},
{
glyphname = jdotless;
lastChange = "2026-04-08 15:36:13 +0000";
layers = (
{
anchors = (
{
name = bottom;
pos = (101,-200);
},
{
name = top;
pos = (130,165);
}
);
layerId = m01;
shapes = (
{
closed = 1;
nodes = (
(162,-200,o),
(182,-114,o),
(182.13,-44.9,cs),
(182.13,13.18,o),
(168.9,70.14,o),
(154,126,cs),
(149,146,o),
(129,151,o),
(114,137,cs),
(97,122,o),
(81,107,o),
(65,93,cs),
(38,69,o),
(60,40,o),
(90,60,cs),
(100,66,o),
(109,73,o),
(122,82,c),
(126,54,o),
(137,-22,o),
(137.23,-52.73,cs),
(137,-90,o),
(130,-153,o),
(88,-153,c),
(83,-138,o),
(76,-123,o),
(72,-106,cs),
(62,-75,o),
(26,-85,o),
(28,-110,cs),
(30,-145,o),
(47,-200,o),
(93.77,-200.2,cs)
);
}
);
width = 233;
}
);
unicode = 567;
},
{
glyphname = lslash;
lastChange = "2026-04-06 08:36:17 +0000";
layers = (
{
layerId = m01;
shapes = (
{
closed = 1;
nodes = (
(192,12,o),
(211,54,o),
(169,63,cs),
(166,64,o),
(143,63,o),
(133,62,c),
(118,207,o),
(128,236,o),
(134,533,cs),
(134,604,o),
(99,614,o),
(89,573,c),
(89,482,o),
(69,150,o),
(87,61,cs),
(93,30,o),
(118,12,o),
(145,12,cs)
);
},
{
closed = 1;
nodes = (
(83,165,o),
(136,191,o),
(189,218,cs),
(212,226,o),
(208,253,o),
(185,260,cs),
(160,263,o),
(22,187,o),
(5,175,cs),
(-13,164,o),
(-8,126,o),
(30,141,cs)
);
}
);
width = 227;
}
);
unicode = 322;
},
{
glyphname = eng;
lastChange = "2026-04-08 16:40:19 +0000";
layers = (
{
layerId = m01;
shapes = (
{
attr = {
fillColor = (0,255);
};
closed = 1;
nodes = (
(70,80,c),
(141,121,o),
(169,128,o),
(209,123,c),
(262,120,o),
(294,74,o),
(305,26,cs),
(317,-30,o),
(302,-90,o),
(258,-94,c),
(218,-100,o),
(200,-62,o),
(202,-43,c),
(204,-29,o),
(216,-16,o),
(240,-37,c),
(243,-40,o),
(244,-46,o),
(248,-54,c),
(267,-42,o),
(269,-25,o),
(265,-9,c),
(259,16,o),
(245,82,o),
(194,82,cs),
(152,82,o),
(105,54,o),
(79,18,c),
(65,-2,o),
(39,6,o),
(34,30,c),
(29,59,o),
(26,89,o),
(25,118,c),
(22,145,o),
(51,146,o),
(62,122,c),
(67,109,o),
(67,94,o)
);
}
);
width = 321;
}
);
unicode = 331;
},
{
glyphname = oslash;
lastChange = "2026-04-08 16:39:45 +0000";
layers = (
{
layerId = m01;
shapes = (
{
closed = 1;
nodes = (
(96,-17,o),
(308,191,o),
(313,209,cs),
(318,228,o),
(276,239,o),
(265,223,cs),
(166,105,o),
(42,-4,o),
(42,-14,cs),
(42,-16,ls),
(42,-37,o),
(76,-64,o),
(87,-38,cs)
);
},
{
closed = 1;
nodes = (
(216,-2,o),
(307,12,o),
(307,74,cs),
(307,134,o),
(227,167,o),
(159,167,cs),
(107,167,o),
(37,151,o),
(30,95,cs),
(30,20,o),
(108,-2,o),
(168,-2,cs)
);
},
{
closed = 1;
nodes = (
(146,38,o),
(83,49,o),
(71,93,c),
(97,117,o),
(125,126,o),
(155,126,cs),
(192,126,o),
(250,116,o),
(263,68,c),
(237,45,o),
(208,38,o),
(178,38,cs)
);
}
);
width = 337;
}
);
unicode = 248;
},
{
glyphname = oe;
lastChange = "2026-04-08 16:50:46 +0000";
layers = (
{
layerId = m01;
shapes = (
{
attr = {
fillColor = (0,255);
};
closed = 1;
nodes = (
(446,-30,o),
(444,-4,o),
(398,11,c),
(370,19,o),
(314,25,o),
(314,41,c),
(336,39,o),
(366,36,o),
(396,40,cs),
(422,42,o),
(449,49,o),
(470,64,c),
(508,91,o),
(508,134,o),
(470,161,c),
(443,181,o),
(407,191,o),
(371,190,cs),
(333,190,o),
(286,174,o),
(251,146,cs),
(247,144,o),
(184,164,o),
(155,163,cs),
(98,162,o),
(34,150,o),
(30,86,c),
(28,56,o),
(54,24,o),
(96,8,c),
(146,-10,o),
(197,-9,o),
(246,6,c),
(260,12,o),
(271,10,o),
(282,2,c),
(317,-21,o),
(355,-34,o),
(397,-33,c)
);
},
{
attr = {
fillColor = (0,255);
};
closed = 1;
nodes = (
(125,41,o),
(74,57,o),
(74,87,cs),
(74,98,o),
(102,123,o),
(146,123,c),
(202,120,o),
(229,111,o),
(237,54,c),
(216,43,o),
(191,39,o),
(167,40,cs)
);
},
{
attr = {
fillColor = (0,255);
};
closed = 1;
nodes = (
(356,78,o),
(320,81,o),
(282,92,c),
(295,126,o),
(331,145,o),
(370,145,cs),
(398,145,o),
(427,136,o),
(451,116,c),
(438,98,o),
(415,86,o),
(386,82,cs)
);
}
);
width = 528;
}
);
unicode = 339;
},
{
glyphname = thorn;
lastChange = "2026-04-08 16:39:49 +0000";
layers = (
{
layerId = m01;
shapes = (
{
attr = {
fillColor = (0,255);
};
closed = 1;
nodes = (
(40,-178,o),
(90,-179,o),
(90,-137,c),
(89,-97,o),
(90,-45,o),
(90,-2,c),
(134,0,o),
(176,0,o),
(217,5,c),
(264,10,o),
(352,35,o),
(344,90,cs),
(333,154,o),
(258,164,o),
(192,164,c),
(144,165,o),
(146,158,o),
(87,148,c),
(87,185,o),
(84,447,o),
(84,480,c),
(84,509,o),
(40,511,o),
(40,480,c),
(41,316,o),
(41,25,o),
(40,-137,c)
);
},
{
attr = {
fillColor = (0,255);
};
closed = 1;
nodes = (
(84,52,o),
(83,95,o),
(93,101,c),
(124,110,o),
(156,118,o),
(186,120,cs),
(242,122,o),
(298,120,o),
(298,80,cs),
(298,66,o),
(226,52,o),
(190,50,cs),
(158,47,o),
(127,49,o),
(96,50,c)
);
}
);
width = 372;
}
);
unicode = 254;
},
{
glyphname = germandbls;
lastChange = "2026-04-06 09:21:49 +0000";
layers = (
{
layerId = m01;
shapes = (
{
attr = {
fillColor = (0,255);
};
closed = 1;
nodes = (
(286,6,o),
(337,19,o),
(344,100,c),
(350,169,o),
(270,204,o),
(227,216,c),
(249,288,o),
(304,493,o),
(323,565,c),
(344,644,o),
(244,704,o),
(183,701,c),
(97,698,o),
(75,654,o),
(55,570,c),
(44,525,o),
(40,459,o),
(40,403,c),
(40,280,o),
(44,157,o),
(47,35,c),
(47,-14,o),
(98,-15,o),
(96,35,c),
(95,153,o),
(93,271,o),
(93,389,c),
(93,429,o),
(97,507,o),
(102,546,c),
(110,614,o),
(152,648,o),
(193,647,cs),
(239,645,o),
(284,599,o),
(271,553,c),
(238,447,o),
(209,331,o),
(176,225,c),
(163,182,o),
(168,164,o),
(212,163,c),
(242,162,o),
(261,146,o),
(279,127,c),
(300,104,o),
(295,77,o),
(265,66,c),
(246,59,o),
(165,58,o),
(164,41,cs),
(165,11,o),
(186,-1,o),
(212,1,c)
);
}
);
width = 394;
}
);
unicode = 223;
},
{
glyphname = ordfeminine;
lastChange = "2026-04-08 17:38:53 +0000";
layers = (
{
anchors = (
{
name = bottom;
pos = (175,0);
},
{
name = ogonek;
pos = (295,10);
},
{
name = top;
pos = (207,190);
}
);
hints = (
{
horizontal = 1;
place = (4.97, 41.86);
place = (4.97, 41.86);
type = Stem;
},
{
horizontal = 1;
origin = (0,8);
place = (630, 45.87);
type = Stem;
},
{
place = (289, 43.13);
place = (289, 43.13);
type = Stem;
}
);
layerId = m01;
shapes = (
{
closed = 1;
nodes = (
(76,521,o),
(126,516,o),
(173,539,c),
(182,502,o),
(203,524,o),
(201,540,cs),
(199,571,o),
(197,600,o),
(192,630,cs),
(185,676,o),
(156,700,o),
(114,694,cs),
(98,691,o),
(88,662,o),
(115,664,cs),
(149,666,o),
(164,651,o),
(168,612,c),
(149,623,ls),
(120,640,o),
(88,640,o),
(56,630,cs),
(35,623,o),
(16,612,o),
(14,585,cs),
(13,564,o),
(28,541,o),
(51,531,cs)
);
},
{
closed = 1;
nodes = (
(121,539,o),
(56,547,o),
(41,583,c),
(79,618,o),
(145,610,o),
(156,569,c)
);
}
);
width = 245;
}
);
unicode = 170;
},
{
glyphname = periodcentered;
lastChange = "2026-03-26 19:05:05 +0000";
layers = (
{
layerId = m01;
shapes = (
{
closed = 1;
nodes = (
(147,287,ls),
(187,287,o),
(211,301,o),
(211,324,c),
(210,331,ls),
(207,349,o),
(215,391,o),
(155,391,cs),
(147,391,o),
(139,390,o),
(129,389,c),
(100,381,o),
(100,335,o),
(100,319,cs),
(101,301,o),
(118,287,o),
(139,287,cs)
);
}
);
width = 311;
}
);
unicode = 183;
},
{
glyphname = bullet;
lastChange = "2026-03-26 19:04:48 +0000";
layers = (
{
layerId = m01;
shapes = (
{
attr = {
fillColor = (0,255);
};
closed = 1;
nodes = (
(232,251,o),
(239,255,o),
(274,297,c),
(302,357,o),
(272,421,o),
(191,440,c),
(113,458,o),
(94,391,o),
(101,336,c),
(109,261,o),
(123,257,o),
(197,251,c)
);
}
);
width = 434;
}
);
unicode = 8226;
},
{
glyphname = backslash;
lastChange = "2026-04-06 10:38:35 +0000";
layers = (
{
layerId = m01;
shapes = (
{
closed = 1;
nodes = (
(307,9,o),
(311,15,o),
(311,28,cs),
(311,40,o),
(307,59,o),
(298,87,cs),
(234,282,o),
(180,478,o),
(120,673,cs),
(117,682,o),
(103,694,o),
(96,694,cs),
(95,694,ls),
(84,694,o),
(76,678,o),
(70,671,c),
(75,648,o),
(78,633,o),
(82,619,cs),
(137,433,o),
(198,246,o),
(254,60,cs),
(262,35,o),
(286,9,o),
(300,9,cs)
);
}
);
width = 381;
}
);
unicode = 92;
},
{
glyphname = periodcentered.loclCAT;
lastChange = "2026-03-26 19:05:24 +0000";
layers = (
{
layerId = m01;
shapes = (
{
closed = 1;
nodes = (
(147,287,ls),
(187,287,o),
(211,301,o),
(211,324,c),
(210,331,ls),
(207,349,o),
(215,391,o),
(155,391,cs),
(147,391,o),
(139,390,o),
(129,389,c),
(100,381,o),
(100,335,o),
(100,319,cs),
(101,301,o),
(118,287,o),
(139,287,cs)
);
}
);
width = 311;
}
);
},
{
glyphname = periodcentered.loclCAT.case;
lastChange = "2026-03-26 19:05:34 +0000";
layers = (
{
layerId = m01;
shapes = (
{
closed = 1;
nodes = (
(147,287,ls),
(187,287,o),
(211,301,o),
(211,324,c),
(210,331,ls),
(207,349,o),
(215,391,o),
(155,391,cs),
(147,391,o),
(139,390,o),
(129,389,c),
(100,381,o),
(100,335,o),
(100,319,cs),
(101,301,o),
(118,287,o),
(139,287,cs)
);
}
);
width = 311;
}
);
},
{
glyphname = endash;
lastChange = "2026-04-06 11:12:28 +0000";
layers = (
{
layerId = m01;
shapes = (
{
closed = 1;
nodes = (
(254,249,o),
(152,249,o),
(131,248,cs),
(70,244,o),
(79,190,o),
(140,190,cs),
(246,186,o),
(352,194,o),
(460,193,c),
(565,226,o),
(467,249,o),
(438,249,cs),
(361,250,l)
);
}
);
width = 597;
}
);
unicode = 8211;
},
{
glyphname = emdash;
lastChange = "2026-04-06 11:11:39 +0000";
layers = (
{
layerId = m01;
shapes = (
{
closed = 1;
nodes = (
(305,186,o),
(448,194,o),
(593,193,cs),
(647,193,o),
(676,217,o),
(631,238,cs),
(616,245,o),
(587,249,o),
(460,250,c),
(316,249,o),
(179,249,o),
(149,248,cs),
(69,244,o),
(68,190,o),
(162,190,cs)
);
}
);
width = 743;
}
);
unicode = 8212;
},
{
glyphname = guilsinglleft;
lastChange = "2026-04-06 09:24:47 +0000";
layers = (
{
layerId = m01;
shapes = (
{
closed = 1;
nodes = (
(117,218,o),
(115,222,o),
(113,226,c),
(126,232,o),
(140,238,o),
(154,246,cs),
(171,256,o),
(189,266,o),
(202,281,cs),
(205,284,o),
(206,289,o),
(207,295,cs),
(209,302,o),
(209,311,o),
(210,318,c),
(204,319,o),
(194,324,o),
(186,325,cs),
(182,326,o),
(179,326,o),
(177,324,cs),
(139,299,o),
(101,272,o),
(66,243,cs),
(57,236,o),
(52,227,o),
(51,218,cs),
(48,205,o),
(55,190,o),
(70,179,cs),
(116,149,o),
(162,120,o),
(209,93,cs),
(217,89,o),
(234,91,o),
(238,97,cs),
(241,99,o),
(243,104,o),
(244,109,cs),
(245,116,o),
(244,123,o),
(242,129,cs),
(238,139,o),
(227,147,o),
(217,153,cs),
(185,174,o),
(151,194,o),
(118,215,c)
);
}
);
width = 334;
}
);
unicode = 8249;
},
{
glyphname = guilsinglright;
lastChange = "2026-04-06 11:13:03 +0000";
layers = (
{
layerId = m01;
shapes = (
{
closed = 1;
nodes = (
(197,239,o),
(181,231,o),
(167,221,cs),
(143,206,o),
(118,192,o),
(98,174,cs),
(89,166,o),
(92,147,o),
(90,132,c),
(100,132,o),
(113,129,o),
(124,131,cs),
(126,131,o),
(129,131,o),
(130,133,cs),
(170,155,o),
(208,181,o),
(247,203,cs),
(272,219,o),
(283,235,o),
(280,253,cs),
(278,265,o),
(269,277,o),
(252,291,cs),
(226,311,o),
(197,330,o),
(170,350,cs),
(160,358,o),
(148,366,o),
(137,364,cs),
(132,363,o),
(128,360,o),
(124,354,cs),
(118,346,o),
(116,339,o),
(117,332,cs),
(119,322,o),
(130,313,o),
(141,305,cs),
(166,289,o),
(192,273,o),
(224,253,c)
);
}
);
width = 360;
}
);
unicode = 8250;
},
{
glyphname = quotedbl;
lastChange = "2026-04-06 10:22:55 +0000";
layers = (
{
hints = (
{
horizontal = 1;
place = (510.3, 229.31);
place = (510.3, 229.31);
type = Stem;
}
);
layerId = m01;
shapes = (
{
closed = 1;
nodes = (
(254,595,o),
(237,639,o),
(244,649,cs),
(249,657,o),
(288,642,o),
(288,704,c),
(274,724,o),
(259,732,o),
(244,732,cs),
(215,732,o),
(191,696,o),
(191,655,cs),
(191,600,o),
(254,531,o),
(254,571,cs)
);
},
{
closed = 1;
nodes = (
(135,575,o),
(99,631,o),
(105,644,cs),
(108,652,o),
(140,645,o),
(140,692,cs),
(140,696,o),
(140,701,o),
(139,706,c),
(124,721,o),
(110,728,o),
(97,728,cs),
(69,728,o),
(50,696,o),
(50,660,cs),
(50,621,o),
(72,576,o),
(128,557,c)
);
}
);
width = 318;
}
);
note = uni0022;
unicode = 34;
},
{
glyphname = paragraph;
lastChange = "2026-04-06 09:25:30 +0000";
layers = (
{
layerId = m01;
shapes = (
{
closed = 1;
nodes = (
(204,-11,o),
(241,-23,o),
(241,41,cs),
(245,223,o),
(259,635,o),
(253,680,cs),
(242,757,o),
(55,733,o),
(55,507,cs),
(55,361,o),
(107,253,o),
(195,134,cs),
(210,114,o),
(195,35,o),
(199,14,cs)
);
},
{
closed = 1;
nodes = (
(140,273,o),
(120,357,o),
(106,469,cs),
(98,536,o),
(109,652,o),
(198,673,c),
(200,195,l)
);
},
{
closed = 1;
nodes = (
(305,-16,o),
(338,-12,o),
(355,13,cs),
(360,19,o),
(364,577,o),
(368,683,cs),
(368,733,o),
(301,728,o),
(307,698,cs),
(321,622,o),
(305,108,o),
(305,11,cs)
);
},
{
closed = 1;
nodes = (
(423,668,o),
(407,726,o),
(361,724,cs),
(262,719,l),
(224,717,o),
(200,731,o),
(164,715,cs),
(127,698,o),
(127,669,o),
(170,669,cs),
(238,665,o),
(306,669,o),
(375,668,cs)
);
}
);
width = 459;
}
);
unicode = 182;
},
{
glyphname = section;
lastChange = "2026-04-06 09:25:36 +0000";
layers = (
{
layerId = m01;
shapes = (
{
attr = {
fillColor = (0,255);
};
closed = 1;
nodes = (
(218,59,o),
(164,178,o),
(149,228,c),
(211,209,o),
(264,258,o),
(242,340,c),
(223,410,o),
(202,480,o),
(183,549,c),
(172,590,o),
(172,631,o),
(204,663,c),
(225,681,o),
(231,715,o),
(212,715,c),
(172,713,o),
(132,674,o),
(127,625,c),
(125,594,o),
(130,562,o),
(137,531,c),
(140,514,o),
(139,502,o),
(123,492,c),
(76,461,o),
(52,416,o),
(64,361,c),
(74,302,o),
(124,152,o),
(140,95,c),
(148,63,o),
(129,45,o),
(100,52,c),
(40,75,o),
(49,35,o),
(76,15,c),
(99,0,o),
(123,0,o),
(147,14,c)
);
},
{
attr = {
fillColor = (0,255);
};
closed = 1;
nodes = (
(139,273,o),
(130,286,o),
(125,308,c),
(117,340,o),
(106,373,o),
(119,406,c),
(126,424,o),
(140,441,o),
(151,457,c),
(155,456,o),
(191,359,o),
(203,310,c),
(211,283,o),
(191,267,o),
(163,270,c)
);
}
);
width = 302;
}
);
unicode = 167;
},
{
glyphname = yen;
lastChange = "2026-04-06 09:25:54 +0000";
layers = (
{
layerId = m01;
shapes = (
{
attr = {
fillColor = (0,255);
};
closed = 1;
nodes = (
(230,228,c),
(249,309,o),
(317,599,o),
(332,658,c),
(352,736,o),
(395,717,o),
(378,651,c),
(309,361,o),
(308,365,o),
(267,181,c),
(287,181,o),
(306,183,o),
(322,180,c),
(350,177,o),
(359,149,o),
(322,134,c),
(310,131,o),
(296,133,o),
(282,134,c),
(256,137,o),
(246,128,o),
(253,100,c),
(267,100,o),
(281,102,o),
(293,98,c),
(322,85,o),
(323,61,o),
(293,51,c),
(282,48,o),
(269,50,o),
(255,50,c),
(252,40,o),
(246,25,o),
(246,13,cs),
(246,-6,o),
(217,-12,o),
(210,12,cs),
(206,25,o),
(211,39,o),
(202,50,c),
(191,51,o),
(174,49,o),
(157,54,c),
(131,60,o),
(126,91,o),
(160,98,c),
(174,101,o),
(189,99,o),
(206,99,c),
(204,111,o),
(201,120,o),
(199,133,c),
(182,133,o),
(165,133,o),
(148,133,c),
(109,130,o),
(105,173,o),
(144,179,c),
(156,181,o),
(169,181,o),
(186,182,c),
(93,475,o),
(114,383,o),
(37,681,c),
(26,716,o),
(62,739,o),
(77,701,c),
(114,587,o),
(227,228,o)
);
}
);
width = 417;
}
);
unicode = 165;
},
{
glyphname = minus;
lastChange = "2026-04-06 11:19:06 +0000";
layers = (
{
layerId = m01;
shapes = (
{
closed = 1;
nodes = (
(353,149,o),
(337,207,o),
(291,205,cs),
(192,200,l),
(154,198,o),
(132,201,o),
(94,198,cs),
(65,195,o),
(57,150,o),
(100,150,cs),
(168,146,o),
(236,150,o),
(305,149,cs)
);
}
);
width = 414;
}
);
unicode = 8722;
},
{
glyphname = multiply;
lastChange = "2026-04-06 09:26:32 +0000";
layers = (
{
layerId = m01;
shapes = (
{
closed = 1;
nodes = (
(408,37,o),
(422,90,o),
(382,114,cs),
(350,135,o),
(280,175,o),
(278,179,c),
(300,189,o),
(368,226,o),
(372,248,cs),
(379,274,o),
(355,290,o),
(342,277,c),
(307,254,o),
(272,230,o),
(240,203,c),
(221,222,o),
(168,256,o),
(147,272,cs),
(114,299,o),
(90,279,o),
(94,254,cs),
(96,244,o),
(107,235,o),
(201,175,c),
(169,158,o),
(102,128,o),
(75,104,cs),
(34,66,o),
(91,50,o),
(107,63,cs),
(142,92,o),
(231,130,o),
(235,132,c),
(281,110,o),
(327,81,o),
(374,54,cs)
);
}
);
width = 466;
}
);
unicode = 215;
},
{
glyphname = divide;
lastChange = "2026-04-06 09:26:42 +0000";
layers = (
{
layerId = m01;
shapes = (
{
closed = 1;
nodes = (
(384,143,o),
(398,176,o),
(372,198,cs),
(363,205,o),
(346,199,o),
(272,200,c),
(210,200,ls),
(186,200,o),
(107,199,o),
(90,198,cs),
(55,195,o),
(42,150,o),
(97,150,cs),
(181,146,o),
(265,144,o),
(350,143,cs)
);
},
{
closed = 1;
nodes = (
(281,9,o),
(272,35,o),
(272,54,cs),
(272,114,o),
(188,112,o),
(188,49,cs),
(188,48,ls),
(188,23,o),
(204,8,o),
(224,0,c)
);
},
{
closed = 1;
nodes = (
(240,235,o),
(290,265,o),
(258,325,cs),
(244,354,o),
(178,338,o),
(178,295,cs),
(178,294,ls),
(178,284,o),
(174,265,o),
(193,251,c)
);
}
);
width = 445;
}
);
unicode = 247;
},
{
glyphname = dieresiscomb;
lastChange = "2026-04-06 09:00:01 +0000";
layers = (
{
anchors = (
{
name = _top;
pos = (112,561);
},
{
name = top;
pos = (109,675);
}
);
layerId = m01;
shapes = (
{
closed = 1;
nodes = (
(82,606,o),
(102,625,o),
(102,647,cs),
(102,669,o),
(80,694,o),
(61,694,cs),
(60,694,ls),
(38,694,o),
(20,671,o),
(20,648,cs),
(20,626,o),
(39,606,o),
(59,606,c)
);
},
{
closed = 1;
nodes = (
(212,598,o),
(227,615,o),
(227,638,cs),
(226,663,o),
(208,683,o),
(188,683,cs),
(168,682,o),
(152,664,o),
(152,641,cs),
(152,617,o),
(170,597,o),
(191,597,cs)
);
}
);
width = 247;
}
);
unicode = 776;
},
{
glyphname = dotaccentcomb;
lastChange = "2026-04-06 09:03:56 +0000";
layers = (
{
anchors = (
{
name = _top;
pos = (66,571);
},
{
name = top;
pos = (66,695);
}
);
layerId = m01;
shapes = (
{
closed = 1;
nodes = (
(91,611,o),
(110,623,o),
(110,647,cs),
(110,662,o),
(114,696,o),
(65,696,cs),
(11,696,o),
(8,611,o),
(52,611,cs)
);
}
);
width = 130;
}
);
unicode = 775;
},
{
glyphname = gravecomb;
lastChange = "2026-04-08 16:10:34 +0000";
layers = (
{
anchors = (
{
name = _top;
pos = (96,587);
},
{
name = top;
pos = (85,715);
}
);
layerId = m01;
shapes = (
{
closed = 1;
nodes = (
(124,610,o),
(150,627,o),
(150,637,cs),
(150,679,o),
(92,715,o),
(52,715,cs),
(40,715,o),
(29,712,o),
(20,704,c),
(54,665,o),
(92,657,o),
(120,616,cs)
);
}
);
width = 170;
}
);
unicode = 768;
},
{
glyphname = acutecomb;
lastChange = "2026-04-06 09:23:08 +0000";
layers = (
{
anchors = (
{
name = _top;
pos = (76,578);
},
{
name = top;
pos = (82,714);
}
);
layerId = m01;
shapes = (
{
closed = 1;
nodes = (
(49,618,o),
(90,651,o),
(93,652,cs),
(132,669,o),
(170,714,o),
(122,714,cs),
(83,714,o),
(30,675,o),
(20,631,c),
(18,623,o),
(38,618,o),
(45,618,cs)
);
}
);
width = 164;
}
);
unicode = 769;
},
{
glyphname = hungarumlautcomb;
lastChange = "2026-04-06 09:22:53 +0000";
layers = (
{
anchors = (
{
name = _top;
pos = (132,600);
},
{
name = top;
pos = (152,714);
}
);
layerId = m01;
shapes = (
{
closed = 1;
nodes = (
(214,628,o),
(329,714,o),
(262,714,cs),
(223,714,o),
(170,675,o),
(160,631,c),
(168,630,o),
(178,628,o),
(185,628,cs)
);
},
{
closed = 1;
nodes = (
(74,628,o),
(189,714,o),
(122,714,cs),
(83,714,o),
(30,675,o),
(20,631,c),
(28,630,o),
(38,628,o),
(45,628,cs)
);
}
);
width = 304;
}
);
unicode = 779;
},
{
glyphname = caroncomb.alt;
lastChange = "2026-04-06 09:01:32 +0000";
layers = (
{
anchors = (
{
name = _topright;
pos = (80,720);
}
);
layerId = m01;
shapes = (
{
closed = 1;
nodes = (
(92,595,o),
(101,658,o),
(92,692,cs),
(87,707,o),
(75,721,o),
(61,732,c),
(47,735,o),
(31,727,o),
(20,715,cs),
(13,708,o),
(16,673,o),
(18,665,cs),
(21,655,o),
(43,658,o),
(46,649,cs),
(50,635,o),
(8,584,o),
(12,565,c)
);
}
);
width = 101;
}
);
},
{
glyphname = circumflexcomb;
lastChange = "2026-04-06 09:05:54 +0000";
layers = (
{
anchors = (
{
name = _top;
pos = (110,593);
},
{
name = top;
pos = (118,732);
}
);
layerId = m01;
shapes = (
{
closed = 1;
nodes = (
(215,643,o),
(144,727,o),
(116,732,c),
(82,732,o),
(20,677,o),
(20,640,cs),
(20,593,o),
(78,675,o),
(112,675,cs),
(157,651,o),
(166,598,o),
(215,612,cs)
);
}
);
width = 235;
}
);
unicode = 770;
},
{
glyphname = caroncomb;
lastChange = "2026-04-06 09:04:57 +0000";
layers = (
{
anchors = (
{
name = _top;
pos = (118,572);
},
{
name = top;
pos = (118,729);
}
);
layerId = m01;
shapes = (
{
closed = 1;
nodes = (
(159,614,o),
(246,729,o),
(203,729,cs),
(158,729,o),
(145,680,o),
(112,663,cs),
(83,663,o),
(71,706,o),
(43,706,cs),
(-16,706,o),
(74,606,o),
(116,606,c)
);
}
);
width = 235;
}
);
unicode = 780;
},
{
glyphname = brevecomb;
lastChange = "2026-04-06 09:23:48 +0000";
layers = (
{
anchors = (
{
name = _top;
pos = (127,584);
},
{
name = top;
pos = (127,723);
}
);
layerId = m01;
shapes = (
{
attr = {
fillColor = (0,255);
};
closed = 1;
nodes = (
(87,627,o),
(53,645,o),
(29,679,c),
(13,700,o),
(32,746,o),
(63,703,c),
(82,679,o),
(105,665,o),
(128,665,cs),
(168,666,o),
(175,694,o),
(201,714,c),
(219,727,o),
(241,711,o),
(233,690,c),
(221,656,o),
(165,620,o),
(124,621,c)
);
}
);
width = 254;
}
);
unicode = 774;
},
{
glyphname = ringcomb;
lastChange = "2026-04-08 18:19:45 +0000";
layers = (
{
anchors = (
{
name = _top;
pos = (131,492);
},
{
name = top;
pos = (134,715);
}
);
layerId = m01;
shapes = (
{
closed = 1;
nodes = (
(179,525,o),
(238,561,o),
(238,595,cs),
(238,648,o),
(166,676,o),
(113,676,cs),
(64,676,o),
(25,641,o),
(25,598,cs),
(25,556,o),
(103,525,o),
(145,525,cs)
);
},
{
closed = 1;
nodes = (
(70,661,o),
(196,628,o),
(196,597,cs),
(196,542,o),
(70,568,o),
(70,600,cs)
);
}
);
width = 263;
}
);
unicode = 778;
},
{
glyphname = tildecomb;
lastChange = "2026-04-06 09:04:41 +0000";
layers = (
{
anchors = (
{
name = _top;
pos = (134,619);
},
{
name = top;
pos = (134,724);
}
);
layerId = m01;
shapes = (
{
closed = 1;
nodes = (
(62,665,o),
(73,675,o),
(87,675,cs),
(117,675,o),
(142,646,o),
(172,646,cs),
(200,646,o),
(248,680,o),
(248,703,cs),
(248,728,o),
(222,726,o),
(209,715,cs),
(198,706,o),
(186,697,o),
(172,687,c),
(155,695,o),
(100,717,o),
(87,717,cs),
(61,717,o),
(36,706,o),
(24,686,cs),
(22,682,o),
(4,657,o),
(45,645,c)
);
}
);
width = 268;
}
);
unicode = 771;
},
{
glyphname = macroncomb;
lastChange = "2026-04-06 09:04:48 +0000";
layers = (
{
anchors = (
{
name = _top;
pos = (154,601);
},
{
name = top;
pos = (154,700);
}
);
layerId = m01;
shapes = (
{
closed = 1;
nodes = (
(306,643,o),
(293,699,o),
(245,699,cs),
(127,699,o),
(62,699,o),
(48,698,cs),
(19,695,o),
(5,650,o),
(54,650,cs),
(122,646,o),
(190,644,o),
(259,643,cs)
);
}
);
width = 308;
}
);
unicode = 772;
},
{
glyphname = commaturnedabovecomb;
lastChange = "2026-03-26 13:00:01 +0000";
layers = (
{
anchors = (
{
name = _top;
pos = (71,530);
},
{
name = top;
pos = (71,759);
}
);
layerId = m01;
shapes = (
{
closed = 1;
nodes = (
(102,563,o),
(116,609,o),
(100,641,cs),
(96,651,o),
(74,645,o),
(71,654,cs),
(65,667,o),
(101,723,o),
(94,741,c),
(58,722,l),
(16,670,o),
(8,603,o),
(66,570,cs)
);
}
);
width = 142;
}
);
unicode = 786;
},
{
glyphname = commaaccentcomb;
lastChange = "2026-03-26 14:51:37 +0000";
layers = (
{
anchors = (
{
name = _bottom;
pos = (112,83);
},
{
name = bottom;
pos = (111,-125);
}
);
layerId = m01;
shapes = (
{
closed = 1;
nodes = (
(150,-95,o),
(159,-32,o),
(150,2,cs),
(145,17,o),
(133,31,o),
(119,42,cs),
(105,45,o),
(89,37,o),
(78,25,cs),
(71,18,o),
(74,-17,o),
(76,-25,cs),
(79,-35,o),
(101,-32,o),
(104,-41,cs),
(108,-55,o),
(66,-106,o),
(70,-125,c)
);
}
);
width = 186;
}
);
unicode = 806;
},
{
glyphname = cedillacomb;
lastChange = "2026-03-26 13:22:11 +0000";
layers = (
{
anchors = (
{
name = _bottom;
pos = (61,41);
},
{
name = bottom;
pos = (80,-96);
}
);
layerId = m01;
shapes = (
{
attr = {
fillColor = (0,255);
};
closed = 1;
nodes = (
(72,-107,o),
(111,-101,o),
(124,-58,c),
(131,-34,o),
(111,10,o),
(84,10,cs),
(74,10,o),
(82,35,o),
(82,41,c),
(90,73,o),
(35,89,o),
(35,40,c),
(36,30,o),
(39,-6,o),
(51,-10,cs),
(79,-20,o),
(90,-33,o),
(79,-55,c),
(40,-3,o),
(18,-57,o),
(38,-76,c)
);
}
);
width = 159;
}
);
unicode = 807;
},
{
glyphname = ogonekcomb;
lastChange = "2026-03-26 13:00:34 +0000";
layers = (
{
anchors = (
{
name = _ogonek;
pos = (72,84);
}
);
layerId = m01;
shapes = (
{
attr = {
fillColor = (0,255);
};
closed = 1;
nodes = (
(107,-42,o),
(129,-30,o),
(144,-8,c),
(157,11,o),
(145,31,o),
(116,21,c),
(108,18,o),
(98,0,o),
(67,4,c),
(67,30,o),
(70,41,o),
(84,61,c),
(112,95,o),
(68,115,o),
(50,86,c),
(40,70,o),
(31,52,o),
(25,34,c),
(9,-11,o),
(32,-41,o),
(81,-41,c)
);
}
);
width = 167;
}
);
unicode = 808;
},
